<svg version="1.1" xmlns="http://www.w3.org/2000/svg" xmlns:xlink="http://www.w3.org/1999/xlink" width="1053" height="1008"><defs><clipPath id="BnQdCtRBZaXM"><path fill="none" stroke="none" d=" M 0 0 L 1053 0 L 1053 1008 L 0 1008 L 0 0 Z"/></clipPath></defs><g transform="scale(1,1)" clip-path="url(#BnQdCtRBZaXM)"><g><rect fill="rgb(255,255,255)" stroke="none" x="0" y="0" width="1053" height="1008" fill-opacity="1"/><path fill="none" stroke="rgb(192,192,192)" paint-order="fill stroke markers" d=" M 2.5 0.5 L 2.5 1008.5 M 2.5 0.5 L 2.5 1008.5 M 180.5 0.5 L 180.5 1008.5 M 270.5 0.5 L 270.5 1008.5 M 359.5 0.5 L 359.5 1008.5 M 448.5 0.5 L 448.5 1008.5 M 537.5 0.5 L 537.5 1008.5 M 627.5 0.5 L 627.5 1008.5 M 716.5 0.5 L 716.5 1008.5 M 805.5 0.5 L 805.5 1008.5 M 895.5 0.5 L 895.5 1008.5 M 984.5 0.5 L 984.5 1008.5" stroke-opacity="1" stroke-linecap="round" stroke-linejoin="round" stroke-miterlimit="10"/><path fill="none" stroke="rgb(192,192,192)" paint-order="fill stroke markers" d=" M 19.5 0.5 L 19.5 1008.5 M 37.5 0.5 L 37.5 1008.5 M 55.5 0.5 L 55.5 1008.5 M 73.5 0.5 L 73.5 1008.5 M 109.5 0.5 L 109.5 1008.5 M 127.5 0.5 L 127.5 1008.5 M 144.5 0.5 L 144.5 1008.5 M 162.5 0.5 L 162.5 1008.5 M 198.5 0.5 L 198.5 1008.5 M 216.5 0.5 L 216.5 1008.5 M 234.5 0.5 L 234.5 1008.5 M 252.5 0.5 L 252.5 1008.5 M 287.5 0.5 L 287.5 1008.5 M 305.5 0.5 L 305.5 1008.5 M 323.5 0.5 L 323.5 1008.5 M 341.5 0.5 L 341.5 1008.5 M 377.5 0.5 L 377.5 1008.5 M 395.5 0.5 L 395.5 1008.5 M 412.5 0.5 L 412.5 1008.5 M 430.5 0.5 L 430.5 1008.5 M 466.5 0.5 L 466.5 1008.5 M 484.5 0.5 L 484.5 1008.5 M 502.5 0.5 L 502.5 1008.5 M 520.5 0.5 L 520.5 1008.5 M 555.5 0.5 L 555.5 1008.5 M 573.5 0.5 L 573.5 1008.5 M 591.5 0.5 L 591.5 1008.5 M 609.5 0.5 L 609.5 1008.5 M 645.5 0.5 L 645.5 1008.5 M 662.5 0.5 L 662.5 1008.5 M 680.5 0.5 L 680.5 1008.5 M 698.5 0.5 L 698.5 1008.5 M 734.5 0.5 L 734.5 1008.5 M 752.5 0.5 L 752.5 1008.5 M 770.5 0.5 L 770.5 1008.5 M 788.5 0.5 L 788.5 1008.5 M 823.5 0.5 L 823.5 1008.5 M 841.5 0.5 L 841.5 1008.5 M 859.5 0.5 L 859.5 1008.5 M 877.5 0.5 L 877.5 1008.5 M 913.5 0.5 L 913.5 1008.5 M 930.5 0.5 L 930.5 1008.5 M 948.5 0.5 L 948.5 1008.5 M 966.5 0.5 L 966.5 1008.5 M 1002.5 0.5 L 1002.5 1008.5 M 1020.5 0.5 L 1020.5 1008.5 M 1038.5 0.5 L 1038.5 1008.5" stroke-opacity="0.23529411764705882" stroke-linecap="round" stroke-linejoin="round" stroke-miterlimit="10"/><path fill="none" stroke="rgb(192,192,192)" paint-order="fill stroke markers" d=" M 0.5 66.5 L 1053.5 66.5 M 0.5 66.5 L 1053.5 66.5 M 0.5 156.5 L 1053.5 156.5 M 0.5 245.5 L 1053.5 245.5 M 0.5 334.5 L 1053.5 334.5 M 0.5 424.5 L 1053.5 424.5 M 0.5 513.5 L 1053.5 513.5 M 0.5 602.5 L 1053.5 602.5 M 0.5 692.5 L 1053.5 692.5 M 0.5 781.5 L 1053.5 781.5 M 0.5 870.5 L 1053.5 870.5" stroke-opacity="1" stroke-linecap="round" stroke-linejoin="round" stroke-miterlimit="10"/><path fill="none" stroke="rgb(192,192,192)" paint-order="fill stroke markers" d=" M 0.5 13.5 L 1053.5 13.5 M 0.5 13.5 L 1053.5 13.5 M 0.5 31.5 L 1053.5 31.5 M 0.5 49.5 L 1053.5 49.5 M 0.5 84.5 L 1053.5 84.5 M 0.5 102.5 L 1053.5 102.5 M 0.5 120.5 L 1053.5 120.5 M 0.5 138.5 L 1053.5 138.5 M 0.5 174.5 L 1053.5 174.5 M 0.5 191.5 L 1053.5 191.5 M 0.5 209.5 L 1053.5 209.5 M 0.5 227.5 L 1053.5 227.5 M 0.5 263.5 L 1053.5 263.5 M 0.5 281.5 L 1053.5 281.5 M 0.5 299.5 L 1053.5 299.5 M 0.5 316.5 L 1053.5 316.5 M 0.5 352.5 L 1053.5 352.5 M 0.5 370.5 L 1053.5 370.5 M 0.5 388.5 L 1053.5 388.5 M 0.5 406.5 L 1053.5 406.5 M 0.5 442.5 L 1053.5 442.5 M 0.5 459.5 L 1053.5 459.5 M 0.5 477.5 L 1053.5 477.5 M 0.5 495.5 L 1053.5 495.5 M 0.5 531.5 L 1053.5 531.5 M 0.5 549.5 L 1053.5 549.5 M 0.5 567.5 L 1053.5 567.5 M 0.5 584.5 L 1053.5 584.5 M 0.5 620.5 L 1053.5 620.5 M 0.5 638.5 L 1053.5 638.5 M 0.5 656.5 L 1053.5 656.5 M 0.5 674.5 L 1053.5 674.5 M 0.5 709.5 L 1053.5 709.5 M 0.5 727.5 L 1053.5 727.5 M 0.5 745.5 L 1053.5 745.5 M 0.5 763.5 L 1053.5 763.5 M 0.5 799.5 L 1053.5 799.5 M 0.5 817.5 L 1053.5 817.5 M 0.5 835.5 L 1053.5 835.5 M 0.5 852.5 L 1053.5 852.5 M 0.5 888.5 L 1053.5 888.5 M 0.5 906.5 L 1053.5 906.5 M 0.5 924.5 L 1053.5 924.5 M 0.5 942.5 L 1053.5 942.5 M 0.5 977.5 L 1053.5 977.5 M 0.5 995.5 L 1053.5 995.5" stroke-opacity="0.23529411764705882" stroke-linecap="round" stroke-linejoin="round" stroke-miterlimit="10"/><path fill="none" stroke="rgb(0,0,0)" paint-order="fill stroke markers" d=" M 91.5 2.5 L 91.5 1008.5" stroke-opacity="1" stroke-miterlimit="10"/><path fill="none" stroke="rgb(0,0,0)" paint-order="fill stroke markers" d=" M 91.5 1.5 L 83.5 9.5" stroke-opacity="1" stroke-miterlimit="10"/><path fill="none" stroke="rgb(0,0,0)" paint-order="fill stroke markers" d=" M 91.5 1.5 L 99.5 9.5" stroke-opacity="1" stroke-miterlimit="10"/><path fill="none" stroke="rgb(0,0,0)" paint-order="fill stroke markers" d=" M 0.5 960.5 L 1051.5 960.5" stroke-opacity="1" stroke-miterlimit="10"/><path fill="none" stroke="rgb(0,0,0)" paint-order="fill stroke markers" d=" M 1052.5 960.5 L 1044.5 952.5" stroke-opacity="1" stroke-miterlimit="10"/><path fill="none" stroke="rgb(0,0,0)" paint-order="fill stroke markers" d=" M 1052.5 960.5 L 1044.5 968.5" stroke-opacity="1" stroke-miterlimit="10"/><text fill="rgb(0,0,0)" stroke="none" font-family="geogebra-sans-serif, sans-serif" font-size="24px" font-style="normal" font-weight="normal" text-decoration="normal" x="163" y="988" text-anchor="start" dominant-baseline="alphabetic" fill-opacity="1">0.1</text><text fill="none" stroke="rgb(255,255,255)" font-family="geogebra-sans-serif, sans-serif" font-size="24px" font-style="normal" font-weight="normal" text-decoration="normal" x="163" y="988" text-anchor="start" dominant-baseline="alphabetic" stroke-opacity="1" stroke-linejoin="bevel" stroke-miterlimit="10" stroke-width="3">0.1</text><text fill="rgb(0,0,0)" stroke="none" font-family="geogebra-sans-serif, sans-serif" font-size="24px" font-style="normal" font-weight="normal" text-decoration="normal" x="163" y="988" text-anchor="start" dominant-baseline="alphabetic" fill-opacity="1">0.1</text><text fill="rgb(0,0,0)" stroke="none" font-family="geogebra-sans-serif, sans-serif" font-size="24px" font-style="normal" font-weight="normal" text-decoration="normal" x="253" y="988" text-anchor="start" dominant-baseline="alphabetic" fill-opacity="1">0.2</text><text fill="none" stroke="rgb(255,255,255)" font-family="geogebra-sans-serif, sans-serif" font-size="24px" font-style="normal" font-weight="normal" text-decoration="normal" x="253" y="988" text-anchor="start" dominant-baseline="alphabetic" stroke-opacity="1" stroke-linejoin="bevel" stroke-miterlimit="10" stroke-width="3">0.2</text><text fill="rgb(0,0,0)" stroke="none" font-family="geogebra-sans-serif, sans-serif" font-size="24px" font-style="normal" font-weight="normal" text-decoration="normal" x="253" y="988" text-anchor="start" dominant-baseline="alphabetic" fill-opacity="1">0.2</text><text fill="rgb(0,0,0)" stroke="none" font-family="geogebra-sans-serif, sans-serif" font-size="24px" font-style="normal" font-weight="normal" text-decoration="normal" x="342" y="988" text-anchor="start" dominant-baseline="alphabetic" fill-opacity="1">0.3</text><text fill="none" stroke="rgb(255,255,255)" font-family="geogebra-sans-serif, sans-serif" font-size="24px" font-style="normal" font-weight="normal" text-decoration="normal" x="342" y="988" text-anchor="start" dominant-baseline="alphabetic" stroke-opacity="1" stroke-linejoin="bevel" stroke-miterlimit="10" stroke-width="3">0.3</text><text fill="rgb(0,0,0)" stroke="none" font-family="geogebra-sans-serif, sans-serif" font-size="24px" font-style="normal" font-weight="normal" text-decoration="normal" x="342" y="988" text-anchor="start" dominant-baseline="alphabetic" fill-opacity="1">0.3</text><text fill="rgb(0,0,0)" stroke="none" font-family="geogebra-sans-serif, sans-serif" font-size="24px" font-style="normal" font-weight="normal" text-decoration="normal" x="431" y="988" text-anchor="start" dominant-baseline="alphabetic" fill-opacity="1">0.4</text><text fill="none" stroke="rgb(255,255,255)" font-family="geogebra-sans-serif, sans-serif" font-size="24px" font-style="normal" font-weight="normal" text-decoration="normal" x="431" y="988" text-anchor="start" dominant-baseline="alphabetic" stroke-opacity="1" stroke-linejoin="bevel" stroke-miterlimit="10" stroke-width="3">0.4</text><text fill="rgb(0,0,0)" stroke="none" font-family="geogebra-sans-serif, sans-serif" font-size="24px" font-style="normal" font-weight="normal" text-decoration="normal" x="431" y="988" text-anchor="start" dominant-baseline="alphabetic" fill-opacity="1">0.4</text><text fill="rgb(0,0,0)" stroke="none" font-family="geogebra-sans-serif, sans-serif" font-size="24px" font-style="normal" font-weight="normal" text-decoration="normal" x="520" y="988" text-anchor="start" dominant-baseline="alphabetic" fill-opacity="1">0.5</text><text fill="none" stroke="rgb(255,255,255)" font-family="geogebra-sans-serif, sans-serif" font-size="24px" font-style="normal" font-weight="normal" text-decoration="normal" x="520" y="988" text-anchor="start" dominant-baseline="alphabetic" stroke-opacity="1" stroke-linejoin="bevel" stroke-miterlimit="10" stroke-width="3">0.5</text><text fill="rgb(0,0,0)" stroke="none" font-family="geogebra-sans-serif, sans-serif" font-size="24px" font-style="normal" font-weight="normal" text-decoration="normal" x="520" y="988" text-anchor="start" dominant-baseline="alphabetic" fill-opacity="1">0.5</text><text fill="rgb(0,0,0)" stroke="none" font-family="geogebra-sans-serif, sans-serif" font-size="24px" font-style="normal" font-weight="normal" text-decoration="normal" x="610" y="988" text-anchor="start" dominant-baseline="alphabetic" fill-opacity="1">0.6</text><text fill="none" stroke="rgb(255,255,255)" font-family="geogebra-sans-serif, sans-serif" font-size="24px" font-style="normal" font-weight="normal" text-decoration="normal" x="610" y="988" text-anchor="start" dominant-baseline="alphabetic" stroke-opacity="1" stroke-linejoin="bevel" stroke-miterlimit="10" stroke-width="3">0.6</text><text fill="rgb(0,0,0)" stroke="none" font-family="geogebra-sans-serif, sans-serif" font-size="24px" font-style="normal" font-weight="normal" text-decoration="normal" x="610" y="988" text-anchor="start" dominant-baseline="alphabetic" fill-opacity="1">0.6</text><text fill="rgb(0,0,0)" stroke="none" font-family="geogebra-sans-serif, sans-serif" font-size="24px" font-style="normal" font-weight="normal" text-decoration="normal" x="699" y="988" text-anchor="start" dominant-baseline="alphabetic" fill-opacity="1">0.7</text><text fill="none" stroke="rgb(255,255,255)" font-family="geogebra-sans-serif, sans-serif" font-size="24px" font-style="normal" font-weight="normal" text-decoration="normal" x="699" y="988" text-anchor="start" dominant-baseline="alphabetic" stroke-opacity="1" stroke-linejoin="bevel" stroke-miterlimit="10" stroke-width="3">0.7</text><text fill="rgb(0,0,0)" stroke="none" font-family="geogebra-sans-serif, sans-serif" font-size="24px" font-style="normal" font-weight="normal" text-decoration="normal" x="699" y="988" text-anchor="start" dominant-baseline="alphabetic" fill-opacity="1">0.7</text><text fill="rgb(0,0,0)" stroke="none" font-family="geogebra-sans-serif, sans-serif" font-size="24px" font-style="normal" font-weight="normal" text-decoration="normal" x="788" y="988" text-anchor="start" dominant-baseline="alphabetic" fill-opacity="1">0.8</text><text fill="none" stroke="rgb(255,255,255)" font-family="geogebra-sans-serif, sans-serif" font-size="24px" font-style="normal" font-weight="normal" text-decoration="normal" x="788" y="988" text-anchor="start" dominant-baseline="alphabetic" stroke-opacity="1" stroke-linejoin="bevel" stroke-miterlimit="10" stroke-width="3">0.8</text><text fill="rgb(0,0,0)" stroke="none" font-family="geogebra-sans-serif, sans-serif" font-size="24px" font-style="normal" font-weight="normal" text-decoration="normal" x="788" y="988" text-anchor="start" dominant-baseline="alphabetic" fill-opacity="1">0.8</text><text fill="rgb(0,0,0)" stroke="none" font-family="geogebra-sans-serif, sans-serif" font-size="24px" font-style="normal" font-weight="normal" text-decoration="normal" x="878" y="988" text-anchor="start" dominant-baseline="alphabetic" fill-opacity="1">0.9</text><text fill="none" stroke="rgb(255,255,255)" font-family="geogebra-sans-serif, sans-serif" font-size="24px" font-style="normal" font-weight="normal" text-decoration="normal" x="878" y="988" text-anchor="start" dominant-baseline="alphabetic" stroke-opacity="1" stroke-linejoin="bevel" stroke-miterlimit="10" stroke-width="3">0.9</text><text fill="rgb(0,0,0)" stroke="none" font-family="geogebra-sans-serif, sans-serif" font-size="24px" font-style="normal" font-weight="normal" text-decoration="normal" x="878" y="988" text-anchor="start" dominant-baseline="alphabetic" fill-opacity="1">0.9</text><text fill="rgb(0,0,0)" stroke="none" font-family="geogebra-sans-serif, sans-serif" font-size="24px" font-style="normal" font-weight="normal" text-decoration="normal" x="979" y="988" text-anchor="start" dominant-baseline="alphabetic" fill-opacity="1">1</text><text fill="none" stroke="rgb(255,255,255)" font-family="geogebra-sans-serif, sans-serif" font-size="24px" font-style="normal" font-weight="normal" text-decoration="normal" x="979" y="988" text-anchor="start" dominant-baseline="alphabetic" stroke-opacity="1" stroke-linejoin="bevel" stroke-miterlimit="10" stroke-width="3">1</text><text fill="rgb(0,0,0)" stroke="none" font-family="geogebra-sans-serif, sans-serif" font-size="24px" font-style="normal" font-weight="normal" text-decoration="normal" x="979" y="988" text-anchor="start" dominant-baseline="alphabetic" fill-opacity="1">1</text><text fill="rgb(0,0,0)" stroke="none" font-family="geogebra-sans-serif, sans-serif" font-size="24px" font-style="normal" font-weight="normal" text-decoration="normal" x="43" y="881" text-anchor="start" dominant-baseline="alphabetic" fill-opacity="1">0.1</text><text fill="none" stroke="rgb(255,255,255)" font-family="geogebra-sans-serif, sans-serif" font-size="24px" font-style="normal" font-weight="normal" text-decoration="normal" x="43" y="881" text-anchor="start" dominant-baseline="alphabetic" stroke-opacity="1" stroke-linejoin="bevel" stroke-miterlimit="10" stroke-width="3">0.1</text><text fill="rgb(0,0,0)" stroke="none" font-family="geogebra-sans-serif, sans-serif" font-size="24px" font-style="normal" font-weight="normal" text-decoration="normal" x="43" y="881" text-anchor="start" dominant-baseline="alphabetic" fill-opacity="1">0.1</text><text fill="rgb(0,0,0)" stroke="none" font-family="geogebra-sans-serif, sans-serif" font-size="24px" font-style="normal" font-weight="normal" text-decoration="normal" x="43" y="792" text-anchor="start" dominant-baseline="alphabetic" fill-opacity="1">0.2</text><text fill="none" stroke="rgb(255,255,255)" font-family="geogebra-sans-serif, sans-serif" font-size="24px" font-style="normal" font-weight="normal" text-decoration="normal" x="43" y="792" text-anchor="start" dominant-baseline="alphabetic" stroke-opacity="1" stroke-linejoin="bevel" stroke-miterlimit="10" stroke-width="3">0.2</text><text fill="rgb(0,0,0)" stroke="none" font-family="geogebra-sans-serif, sans-serif" font-size="24px" font-style="normal" font-weight="normal" text-decoration="normal" x="43" y="792" text-anchor="start" dominant-baseline="alphabetic" fill-opacity="1">0.2</text><text fill="rgb(0,0,0)" stroke="none" font-family="geogebra-sans-serif, sans-serif" font-size="24px" font-style="normal" font-weight="normal" text-decoration="normal" x="43" y="703" text-anchor="start" dominant-baseline="alphabetic" fill-opacity="1">0.3</text><text fill="none" stroke="rgb(255,255,255)" font-family="geogebra-sans-serif, sans-serif" font-size="24px" font-style="normal" font-weight="normal" text-decoration="normal" x="43" y="703" text-anchor="start" dominant-baseline="alphabetic" stroke-opacity="1" stroke-linejoin="bevel" stroke-miterlimit="10" stroke-width="3">0.3</text><text fill="rgb(0,0,0)" stroke="none" font-family="geogebra-sans-serif, sans-serif" font-size="24px" font-style="normal" font-weight="normal" text-decoration="normal" x="43" y="703" text-anchor="start" dominant-baseline="alphabetic" fill-opacity="1">0.3</text><text fill="rgb(0,0,0)" stroke="none" font-family="geogebra-sans-serif, sans-serif" font-size="24px" font-style="normal" font-weight="normal" text-decoration="normal" x="43" y="613" text-anchor="start" dominant-baseline="alphabetic" fill-opacity="1">0.4</text><text fill="none" stroke="rgb(255,255,255)" font-family="geogebra-sans-serif, sans-serif" font-size="24px" font-style="normal" font-weight="normal" text-decoration="normal" x="43" y="613" text-anchor="start" dominant-baseline="alphabetic" stroke-opacity="1" stroke-linejoin="bevel" stroke-miterlimit="10" stroke-width="3">0.4</text><text fill="rgb(0,0,0)" stroke="none" font-family="geogebra-sans-serif, sans-serif" font-size="24px" font-style="normal" font-weight="normal" text-decoration="normal" x="43" y="613" text-anchor="start" dominant-baseline="alphabetic" fill-opacity="1">0.4</text><text fill="rgb(0,0,0)" stroke="none" font-family="geogebra-sans-serif, sans-serif" font-size="24px" font-style="normal" font-weight="normal" text-decoration="normal" x="43" y="524" text-anchor="start" dominant-baseline="alphabetic" fill-opacity="1">0.5</text><text fill="none" stroke="rgb(255,255,255)" font-family="geogebra-sans-serif, sans-serif" font-size="24px" font-style="normal" font-weight="normal" text-decoration="normal" x="43" y="524" text-anchor="start" dominant-baseline="alphabetic" stroke-opacity="1" stroke-linejoin="bevel" stroke-miterlimit="10" stroke-width="3">0.5</text><text fill="rgb(0,0,0)" stroke="none" font-family="geogebra-sans-serif, sans-serif" font-size="24px" font-style="normal" font-weight="normal" text-decoration="normal" x="43" y="524" text-anchor="start" dominant-baseline="alphabetic" fill-opacity="1">0.5</text><text fill="rgb(0,0,0)" stroke="none" font-family="geogebra-sans-serif, sans-serif" font-size="24px" font-style="normal" font-weight="normal" text-decoration="normal" x="43" y="435" text-anchor="start" dominant-baseline="alphabetic" fill-opacity="1">0.6</text><text fill="none" stroke="rgb(255,255,255)" font-family="geogebra-sans-serif, sans-serif" font-size="24px" font-style="normal" font-weight="normal" text-decoration="normal" x="43" y="435" text-anchor="start" dominant-baseline="alphabetic" stroke-opacity="1" stroke-linejoin="bevel" stroke-miterlimit="10" stroke-width="3">0.6</text><text fill="rgb(0,0,0)" stroke="none" font-family="geogebra-sans-serif, sans-serif" font-size="24px" font-style="normal" font-weight="normal" text-decoration="normal" x="43" y="435" text-anchor="start" dominant-baseline="alphabetic" fill-opacity="1">0.6</text><text fill="rgb(0,0,0)" stroke="none" font-family="geogebra-sans-serif, sans-serif" font-size="24px" font-style="normal" font-weight="normal" text-decoration="normal" x="43" y="345" text-anchor="start" dominant-baseline="alphabetic" fill-opacity="1">0.7</text><text fill="none" stroke="rgb(255,255,255)" font-family="geogebra-sans-serif, sans-serif" font-size="24px" font-style="normal" font-weight="normal" text-decoration="normal" x="43" y="345" text-anchor="start" dominant-baseline="alphabetic" stroke-opacity="1" stroke-linejoin="bevel" stroke-miterlimit="10" stroke-width="3">0.7</text><text fill="rgb(0,0,0)" stroke="none" font-family="geogebra-sans-serif, sans-serif" font-size="24px" font-style="normal" font-weight="normal" text-decoration="normal" x="43" y="345" text-anchor="start" dominant-baseline="alphabetic" fill-opacity="1">0.7</text><text fill="rgb(0,0,0)" stroke="none" font-family="geogebra-sans-serif, sans-serif" font-size="24px" font-style="normal" font-weight="normal" text-decoration="normal" x="43" y="256" text-anchor="start" dominant-baseline="alphabetic" fill-opacity="1">0.8</text><text fill="none" stroke="rgb(255,255,255)" font-family="geogebra-sans-serif, sans-serif" font-size="24px" font-style="normal" font-weight="normal" text-decoration="normal" x="43" y="256" text-anchor="start" dominant-baseline="alphabetic" stroke-opacity="1" stroke-linejoin="bevel" stroke-miterlimit="10" stroke-width="3">0.8</text><text fill="rgb(0,0,0)" stroke="none" font-family="geogebra-sans-serif, sans-serif" font-size="24px" font-style="normal" font-weight="normal" text-decoration="normal" x="43" y="256" text-anchor="start" dominant-baseline="alphabetic" fill-opacity="1">0.8</text><text fill="rgb(0,0,0)" stroke="none" font-family="geogebra-sans-serif, sans-serif" font-size="24px" font-style="normal" font-weight="normal" text-decoration="normal" x="43" y="167" text-anchor="start" dominant-baseline="alphabetic" fill-opacity="1">0.9</text><text fill="none" stroke="rgb(255,255,255)" font-family="geogebra-sans-serif, sans-serif" font-size="24px" font-style="normal" font-weight="normal" text-decoration="normal" x="43" y="167" text-anchor="start" dominant-baseline="alphabetic" stroke-opacity="1" stroke-linejoin="bevel" stroke-miterlimit="10" stroke-width="3">0.9</text><text fill="rgb(0,0,0)" stroke="none" font-family="geogebra-sans-serif, sans-serif" font-size="24px" font-style="normal" font-weight="normal" text-decoration="normal" x="43" y="167" text-anchor="start" dominant-baseline="alphabetic" fill-opacity="1">0.9</text><text fill="rgb(0,0,0)" stroke="none" font-family="geogebra-sans-serif, sans-serif" font-size="24px" font-style="normal" font-weight="normal" text-decoration="normal" x="66" y="77" text-anchor="start" dominant-baseline="alphabetic" fill-opacity="1">1</text><text fill="none" stroke="rgb(255,255,255)" font-family="geogebra-sans-serif, sans-serif" font-size="24px" font-style="normal" font-weight="normal" text-decoration="normal" x="66" y="77" text-anchor="start" dominant-baseline="alphabetic" stroke-opacity="1" stroke-linejoin="bevel" stroke-miterlimit="10" stroke-width="3">1</text><text fill="rgb(0,0,0)" stroke="none" font-family="geogebra-sans-serif, sans-serif" font-size="24px" font-style="normal" font-weight="normal" text-decoration="normal" x="66" y="77" text-anchor="start" dominant-baseline="alphabetic" fill-opacity="1">1</text><text fill="rgb(0,0,0)" stroke="none" font-family="geogebra-sans-serif, sans-serif" font-size="24px" font-style="normal" font-weight="normal" text-decoration="normal" x="66" y="988" text-anchor="start" dominant-baseline="alphabetic" fill-opacity="1">0</text><text fill="none" stroke="rgb(255,255,255)" font-family="geogebra-sans-serif, sans-serif" font-size="24px" font-style="normal" font-weight="normal" text-decoration="normal" x="66" y="988" text-anchor="start" dominant-baseline="alphabetic" stroke-opacity="1" stroke-linejoin="bevel" stroke-miterlimit="10" stroke-width="3">0</text><text fill="rgb(0,0,0)" stroke="none" font-family="geogebra-sans-serif, sans-serif" font-size="24px" font-style="normal" font-weight="normal" text-decoration="normal" x="66" y="988" text-anchor="start" dominant-baseline="alphabetic" fill-opacity="1">0</text><path fill="none" stroke="rgb(0,0,0)" paint-order="fill stroke markers" d=" M 91.36619562934035 960.0497105094657 L 984.538245133327 66.87766100547788" stroke-opacity="0.6980392156862745" stroke-linecap="round" stroke-linejoin="round" stroke-miterlimit="10" stroke-width="1.5"/><text fill="rgb(0,0,0)" stroke="none" font-family="geogebra-sans-serif, sans-serif" font-size="32px" font-style="normal" font-weight="normal" text-decoration="normal" x="496" y="584" text-anchor="start" dominant-baseline="alphabetic" fill-opacity="1">x</text><text fill="none" stroke="rgb(255,255,255)" font-family="geogebra-sans-serif, sans-serif" font-size="32px" font-style="normal" font-weight="normal" text-decoration="normal" x="496" y="584" text-anchor="start" dominant-baseline="alphabetic" stroke-opacity="1" stroke-linejoin="bevel" stroke-miterlimit="10" stroke-width="3">x</text><text fill="rgb(0,0,0)" stroke="none" font-family="geogebra-sans-serif, sans-serif" font-size="32px" font-style="normal" font-weight="normal" text-decoration="normal" x="496" y="584" text-anchor="start" dominant-baseline="alphabetic" fill-opacity="1">x</text><path fill="none" stroke="rgb(46,125,50)" paint-order="fill stroke markers" d=" M 537.9522203813336 513.4636857574718 L 203.01270181733867 513.4636857574718" stroke-opacity="0.6980392156862745" stroke-linecap="round" stroke-linejoin="round" stroke-miterlimit="10" stroke-width="3"/><text fill="rgb(46,125,50)" stroke="none" font-family="geogebra-sans-serif, sans-serif" font-size="32px" font-style="normal" font-weight="normal" text-decoration="normal" x="323" y="500" text-anchor="start" dominant-baseline="alphabetic" fill-opacity="1">0.5^1</text><text fill="none" stroke="rgb(255,255,255)" font-family="geogebra-sans-serif, sans-serif" font-size="32px" font-style="normal" font-weight="normal" text-decoration="normal" x="323" y="500" text-anchor="start" dominant-baseline="alphabetic" stroke-opacity="1" stroke-linejoin="bevel" stroke-miterlimit="10" stroke-width="3">0.5^1</text><text fill="rgb(46,125,50)" stroke="none" font-family="geogebra-sans-serif, sans-serif" font-size="32px" font-style="normal" font-weight="normal" text-decoration="normal" x="323" y="500" text-anchor="start" dominant-baseline="alphabetic" fill-opacity="1">0.5^1</text><path fill="none" stroke="rgb(46,125,50)" paint-order="fill stroke markers" d=" M 314.659208005337 736.7566981334687 L 147.18944872333952 736.7566981334687" stroke-opacity="0.6980392156862745" stroke-linecap="round" stroke-linejoin="round" stroke-miterlimit="10" stroke-width="3.5"/><text fill="rgb(46,125,50)" stroke="none" font-family="geogebra-sans-serif, sans-serif" font-size="32px" font-style="normal" font-weight="normal" text-decoration="normal" x="191" y="723" text-anchor="start" dominant-baseline="alphabetic" fill-opacity="1">0.5^2</text><text fill="none" stroke="rgb(255,255,255)" font-family="geogebra-sans-serif, sans-serif" font-size="32px" font-style="normal" font-weight="normal" text-decoration="normal" x="191" y="723" text-anchor="start" dominant-baseline="alphabetic" stroke-opacity="1" stroke-linejoin="bevel" stroke-miterlimit="10" stroke-width="3">0.5^2</text><text fill="rgb(46,125,50)" stroke="none" font-family="geogebra-sans-serif, sans-serif" font-size="32px" font-style="normal" font-weight="normal" text-decoration="normal" x="191" y="723" text-anchor="start" dominant-baseline="alphabetic" fill-opacity="1">0.5^2</text><path fill="none" stroke="rgb(46,125,50)" paint-order="fill stroke markers" d=" M 203.01270181733867 848.4032043214672 L 119.27782217633994 848.4032043214672" stroke-opacity="0.6980392156862745" stroke-linecap="round" stroke-linejoin="round" stroke-miterlimit="10" stroke-width="3.5"/><text fill="rgb(46,125,50)" stroke="none" font-family="geogebra-sans-serif, sans-serif" font-size="32px" font-style="normal" font-weight="normal" text-decoration="normal" x="121" y="830" text-anchor="start" dominant-baseline="alphabetic" fill-opacity="1">0.5^3</text><text fill="none" stroke="rgb(255,255,255)" font-family="geogebra-sans-serif, sans-serif" font-size="32px" font-style="normal" font-weight="normal" text-decoration="normal" x="121" y="830" text-anchor="start" dominant-baseline="alphabetic" stroke-opacity="1" stroke-linejoin="bevel" stroke-miterlimit="10" stroke-width="3">0.5^3</text><text fill="rgb(46,125,50)" stroke="none" font-family="geogebra-sans-serif, sans-serif" font-size="32px" font-style="normal" font-weight="normal" text-decoration="normal" x="121" y="830" text-anchor="start" dominant-baseline="alphabetic" fill-opacity="1">0.5^3</text><path fill="none" stroke="rgb(46,125,50)" paint-order="fill stroke markers" d=" M 105.32200890284014 904.2264574154665 L 147.18944872333952 904.2264574154665" stroke-opacity="0.6980392156862745" stroke-linecap="round" stroke-linejoin="round" stroke-miterlimit="10" stroke-width="2.5"/><text fill="rgb(46,125,50)" stroke="none" font-family="geogebra-sans-serif, sans-serif" font-size="32px" font-style="normal" font-weight="normal" text-decoration="normal" x="174" y="909" text-anchor="start" dominant-baseline="alphabetic" fill-opacity="1">0.5^4</text><text fill="none" stroke="rgb(255,255,255)" font-family="geogebra-sans-serif, sans-serif" font-size="32px" font-style="normal" font-weight="normal" text-decoration="normal" x="174" y="909" text-anchor="start" dominant-baseline="alphabetic" stroke-opacity="1" stroke-linejoin="bevel" stroke-miterlimit="10" stroke-width="3">0.5^4</text><text fill="rgb(46,125,50)" stroke="none" font-family="geogebra-sans-serif, sans-serif" font-size="32px" font-style="normal" font-weight="normal" text-decoration="normal" x="174" y="909" text-anchor="start" dominant-baseline="alphabetic" fill-opacity="1">0.5^4</text><path fill="none" stroke="rgb(46,125,50)" paint-order="fill stroke markers" d=" M 98.34410226609025 932.1380839624661 L 119.27782217633994 932.1380839624661" stroke-opacity="0.6980392156862745" stroke-linecap="round" stroke-linejoin="round" stroke-miterlimit="10" stroke-width="1.5"/><text fill="rgb(46,125,50)" stroke="none" font-family="geogebra-sans-serif, sans-serif" font-size="32px" font-style="normal" font-weight="normal" text-decoration="normal" x="132" y="952" text-anchor="start" dominant-baseline="alphabetic" fill-opacity="1">0.5^5</text><text fill="none" stroke="rgb(255,255,255)" font-family="geogebra-sans-serif, sans-serif" font-size="32px" font-style="normal" font-weight="normal" text-decoration="normal" x="132" y="952" text-anchor="start" dominant-baseline="alphabetic" stroke-opacity="1" stroke-linejoin="bevel" stroke-miterlimit="10" stroke-width="3">0.5^5</text><text fill="rgb(46,125,50)" stroke="none" font-family="geogebra-sans-serif, sans-serif" font-size="32px" font-style="normal" font-weight="normal" text-decoration="normal" x="132" y="952" text-anchor="start" dominant-baseline="alphabetic" fill-opacity="1">0.5^5</text><path fill="none" stroke="rgb(0,0,0)" paint-order="fill stroke markers" d=" M 91.36619562934035 960.0497105094657 L 537.9522203813336 513.4636857574718" stroke-opacity="0.6980392156862745" stroke-linecap="round" stroke-linejoin="round" stroke-miterlimit="10" stroke-width="3.5"/><path fill="none" stroke="rgb(46,125,50)" paint-order="fill stroke markers" d=" M 314.659208005337 66.87766100547788 L 984.538245133327 66.87766100547788" stroke-opacity="0.6980392156862745" stroke-linecap="round" stroke-linejoin="round" stroke-miterlimit="10" stroke-width="3.5"/><text fill="rgb(46,125,50)" stroke="none" font-family="geogebra-sans-serif, sans-serif" font-size="32px" font-style="normal" font-weight="normal" text-decoration="normal" x="586" y="52" text-anchor="start" dominant-baseline="alphabetic" fill-opacity="1">0.5^0</text><text fill="none" stroke="rgb(255,255,255)" font-family="geogebra-sans-serif, sans-serif" font-size="32px" font-style="normal" font-weight="normal" text-decoration="normal" x="586" y="52" text-anchor="start" dominant-baseline="alphabetic" stroke-opacity="1" stroke-linejoin="bevel" stroke-miterlimit="10" stroke-width="3">0.5^0</text><text fill="rgb(46,125,50)" stroke="none" font-family="geogebra-sans-serif, sans-serif" font-size="32px" font-style="normal" font-weight="normal" text-decoration="normal" x="586" y="52" text-anchor="start" dominant-baseline="alphabetic" fill-opacity="1">0.5^0</text><g transform="scale(67,67)"><g transform="translate(2.2388059701492535,2.8931158805970147)"><path fill="rgb(46,125,50)" stroke="none" paint-order="stroke fill markers" d=" M 0.46 -0.32 Q 0.46 -0.17400000000000002 0.423 -0.094 Q 0.364 0.018000000000000002 0.249 0.022 Q 0.158 0.022 0.10300000000000001 -0.05 Q 0.092 -0.063 0.084 -0.079 Q 0.039 -0.162 0.039 -0.32 Q 0.039 -0.467 0.076 -0.547 Q 0.126 -0.659 0.23800000000000002 -0.666 L 0.25 -0.666 Q 0.339 -0.666 0.395 -0.595 L 0.395 -0.594 Q 0.40900000000000003 -0.5760000000000001 0.42 -0.554 Q 0.46 -0.46900000000000003 0.46 -0.32 M 0.249 0 L 0.249 0 Q 0.312 0 0.34600000000000003 -0.061 Q 0.36 -0.088 0.366 -0.125 Q 0.377 -0.189 0.377 -0.332 Q 0.377 -0.47100000000000003 0.367 -0.527 Q 0.34900000000000003 -0.622 0.275 -0.641 Q 0.262 -0.644 0.249 -0.644 Q 0.179 -0.644 0.147 -0.5740000000000001 Q 0.136 -0.55 0.13 -0.516 Q 0.122 -0.462 0.122 -0.332 Q 0.122 -0.181 0.133 -0.121 Q 0.151 -0.025 0.221 -0.004 Q 0.23500000000000001 0 0.249 0 Z"/></g><g transform="translate(2.7388059701492535,2.8931158805970147)"><path fill="rgb(46,125,50)" stroke="none" paint-order="stroke fill markers" d=" M 0.18 -0.083 L 0.18 0 L 0.097 0 L 0.097 -0.083 L 0.18 -0.083 Z"/></g><g transform="translate(3.0168059701492536,2.8931158805970147)"><path fill="rgb(46,125,50)" stroke="none" paint-order="stroke fill markers" d=" M 0.449 -0.201 L 0.449 -0.201 Q 0.449 -0.098 0.372 -0.031 Q 0.31 0.022 0.231 0.022 Q 0.139 0.022 0.085 -0.055 Q 0.05 -0.10400000000000001 0.05 -0.161 Q 0.05 -0.20700000000000002 0.091 -0.213 Q 0.095 -0.214 0.099 -0.214 Q 0.136 -0.214 0.147 -0.181 Q 0.149 -0.17300000000000001 0.149 -0.165 Q 0.149 -0.133 0.121 -0.121 Q 0.111 -0.116 0.099 -0.116 Q 0.088 -0.116 0.082 -0.11800000000000001 Q 0.1 -0.055 0.159 -0.024 Q 0.192 -0.006 0.229 -0.006 Q 0.296 -0.006 0.336 -0.07100000000000001 Q 0.36 -0.113 0.36 -0.20800000000000002 Q 0.36 -0.292 0.342 -0.334 Q 0.314 -0.398 0.257 -0.398 Q 0.176 -0.398 0.128 -0.328 Q 0.122 -0.319 0.115 -0.319 Q 0.10200000000000001 -0.319 0.101 -0.333 L 0.101 -0.34500000000000003 L 0.101 -0.641 Q 0.101 -0.664 0.111 -0.665 Q 0.115 -0.665 0.123 -0.662 Q 0.186 -0.634 0.256 -0.634 Q 0.328 -0.634 0.392 -0.663 Q 0.397 -0.666 0.4 -0.666 Q 0.41000000000000003 -0.666 0.41000000000000003 -0.655 Q 0.41000000000000003 -0.642 0.378 -0.613 Q 0.31 -0.551 0.217 -0.551 Q 0.17500000000000002 -0.551 0.132 -0.5640000000000001 L 0.132 -0.369 Q 0.184 -0.42 0.259 -0.42 Q 0.34700000000000003 -0.42 0.404 -0.343 Q 0.449 -0.28200000000000003 0.449 -0.201 Z"/></g><g transform="translate(3.5168059701492536,2.480223880597015) scale(0.7,0.7)"><path fill="rgb(46,125,50)" stroke="none" paint-order="stroke fill markers" d=" M 0.088 -0.059000000000000004 L 0.088 -0.059000000000000004 L 0.146 -0.29 Q 0.162 -0.354 0.162 -0.374 Q 0.162 -0.42 0.131 -0.42 Q 0.09 -0.42 0.064 -0.325 Q 0.061 -0.314 0.058 -0.301 Q 0.047 -0.279 0.041 -0.278 Q 0.029 -0.278 0.029 -0.28800000000000003 Q 0.029 -0.304 0.048 -0.356 Q 0.054 -0.373 0.06 -0.385 Q 0.084 -0.434 0.12 -0.441 Q 0.127 -0.442 0.134 -0.442 Q 0.188 -0.442 0.214 -0.397 Q 0.224 -0.378 0.226 -0.355 Q 0.29 -0.442 0.382 -0.442 Q 0.433 -0.442 0.464 -0.41600000000000004 Q 0.492 -0.392 0.496 -0.34500000000000003 Q 0.5640000000000001 -0.442 0.659 -0.442 Q 0.748 -0.442 0.769 -0.373 L 0.769 -0.372 Q 0.774 -0.355 0.774 -0.335 Q 0.774 -0.28200000000000003 0.713 -0.115 Q 0.6950000000000001 -0.07100000000000001 0.6950000000000001 -0.044 Q 0.6950000000000001 -0.011 0.719 -0.011 Q 0.781 -0.011 0.8170000000000001 -0.121 L 0.8210000000000001 -0.135 Q 0.8260000000000001 -0.151 0.8310000000000001 -0.152 L 0.8310000000000001 -0.153 L 0.836 -0.153 Q 0.848 -0.153 0.848 -0.14300000000000002 Q 0.848 -0.126 0.8270000000000001 -0.08 Q 0.784 0.011 0.717 0.011 Q 0.666 0.011 0.644 -0.032 Q 0.635 -0.05 0.635 -0.07100000000000001 Q 0.635 -0.091 0.648 -0.126 Q 0.71 -0.29 0.71 -0.35000000000000003 Q 0.71 -0.42 0.656 -0.42 Q 0.5680000000000001 -0.42 0.51 -0.325 Q 0.494 -0.3 0.491 -0.28700000000000003 Q 0.488 -0.274 0.431 -0.046 Q 0.42 -0.003 0.406 0.006 L 0.405 0.007 L 0.404 0.007 Q 0.397 0.011 0.386 0.011 Q 0.361 0.006 0.357 -0.016 L 0.37 -0.075 L 0.39 -0.151 L 0.418 -0.267 Q 0.433 -0.323 0.433 -0.35000000000000003 Q 0.433 -0.42 0.379 -0.42 Q 0.289 -0.42 0.228 -0.32 Q 0.221 -0.309 0.216 -0.298 L 0.203 -0.248 Q 0.198 -0.225 0.186 -0.181 L 0.164 -0.091 Q 0.147 -0.022 0.145 -0.017 Q 0.136 0.009000000000000001 0.108 0.011 Q 0.083 0.006 0.079 -0.016 Q 0.079 -0.014 0.088 -0.059000000000000004 Z"/></g><g transform="translate(4.131405970149253,2.585223880597015) scale(0.5,0.5)"><path fill="rgb(46,125,50)" stroke="none" paint-order="stroke fill markers" d=" M 0.294 -0.64 L 0.294 -0.079 Q 0.294 -0.049 0.306 -0.041 Q 0.323 -0.031 0.387 -0.031 L 0.419 -0.031 L 0.419 0 Q 0.384 -0.003 0.257 -0.003 Q 0.13 -0.003 0.095 0 L 0.095 -0.031 L 0.127 -0.031 Q 0.20400000000000001 -0.031 0.215 -0.049 L 0.216 -0.05 Q 0.22 -0.058 0.22 -0.079 L 0.22 -0.597 Q 0.168 -0.5710000000000001 0.089 -0.5710000000000001 L 0.089 -0.602 Q 0.209 -0.602 0.271 -0.666 Q 0.29 -0.666 0.293 -0.659 L 0.293 -0.659 L 0.293 -0.658 Q 0.294 -0.655 0.294 -0.64 Z"/></g><g transform="translate(4.381405970149253,2.480223880597015) scale(0.7,0.7)"><path fill="rgb(46,125,50)" stroke="none" paint-order="stroke fill markers" d=" M 0.331 0.24 L 0.331 0.24 Q 0.331 0.25 0.321 0.25 Q 0.309 0.25 0.268 0.209 Q 0.20600000000000002 0.147 0.165 0.062 Q 0.099 -0.074 0.099 -0.25 Q 0.099 -0.419 0.162 -0.555 Q 0.214 -0.666 0.294 -0.733 Q 0.315 -0.75 0.321 -0.75 Q 0.331 -0.75 0.331 -0.74 Q 0.331 -0.735 0.318 -0.723 Q 0.157 -0.559 0.157 -0.25 Q 0.157 0.058 0.314 0.218 Q 0.331 0.23500000000000001 0.331 0.24 Z"/></g><g transform="translate(4.653705970149254,2.480223880597015) scale(0.7,0.7)"><path fill="rgb(46,125,50)" stroke="none" paint-order="stroke fill markers" d=" M 0.334 -0.302 L 0.3 -0.165 Q 0.28300000000000003 -0.097 0.28300000000000003 -0.077 Q 0.28300000000000003 -0.025 0.32 -0.014 Q 0.328 -0.011 0.338 -0.011 Q 0.388 -0.011 0.429 -0.061 Q 0.456 -0.093 0.47100000000000003 -0.14200000000000002 Q 0.47400000000000003 -0.153 0.484 -0.153 Q 0.496 -0.153 0.496 -0.14300000000000002 Q 0.496 -0.11800000000000001 0.465 -0.07100000000000001 Q 0.41100000000000003 0.011 0.336 0.011 Q 0.268 0.011 0.23700000000000002 -0.046 Q 0.231 -0.055 0.228 -0.065 Q 0.20400000000000001 -0.017 0.162 0.002 Q 0.14300000000000002 0.011 0.123 0.011 Q 0.063 0.011 0.039 -0.024 Q 0.029 -0.037 0.029 -0.055 Q 0.029 -0.092 0.061 -0.107 Q 0.07200000000000001 -0.113 0.084 -0.113 Q 0.114 -0.113 0.12 -0.088 Q 0.121 -0.083 0.121 -0.078 Q 0.121 -0.044 0.08700000000000001 -0.028 Q 0.081 -0.025 0.074 -0.024 Q 0.095 -0.011 0.124 -0.011 Q 0.177 -0.011 0.20800000000000002 -0.082 Q 0.214 -0.097 0.219 -0.115 Q 0.273 -0.319 0.273 -0.353 Q 0.267 -0.41500000000000004 0.219 -0.42 Q 0.167 -0.42 0.124 -0.367 L 0.124 -0.366 Q 0.124 -0.365 0.123 -0.365 Q 0.108 -0.34500000000000003 0.096 -0.319 Q 0.091 -0.307 0.08700000000000001 -0.295 L 0.085 -0.289 Q 0.083 -0.278 0.07200000000000001 -0.278 Q 0.06 -0.278 0.06 -0.28800000000000003 Q 0.06 -0.313 0.092 -0.36 Q 0.146 -0.442 0.221 -0.442 Q 0.298 -0.442 0.329 -0.366 Q 0.361 -0.428 0.41400000000000003 -0.44 Q 0.424 -0.442 0.434 -0.442 Q 0.493 -0.442 0.517 -0.40900000000000003 Q 0.527 -0.395 0.527 -0.376 Q 0.527 -0.335 0.49 -0.321 Q 0.481 -0.318 0.47300000000000003 -0.318 Q 0.442 -0.318 0.436 -0.34500000000000003 Q 0.435 -0.34900000000000003 0.435 -0.353 Q 0.435 -0.383 0.464 -0.4 Q 0.47300000000000003 -0.405 0.483 -0.40700000000000003 Q 0.462 -0.42 0.433 -0.42 Q 0.365 -0.42 0.337 -0.314 Q 0.335 -0.308 0.334 -0.302 Z"/></g><g transform="translate(5.054105970149254,2.480223880597015) scale(0.7,0.7)"><path fill="rgb(46,125,50)" stroke="none" paint-order="stroke fill markers" d=" M 0.289 -0.25 L 0.289 -0.25 Q 0.289 -0.081 0.226 0.055 Q 0.17400000000000002 0.166 0.094 0.233 Q 0.073 0.25 0.067 0.25 Q 0.057 0.25 0.057 0.24 Q 0.057 0.23500000000000001 0.07 0.223 Q 0.231 0.059000000000000004 0.231 -0.25 Q 0.231 -0.555 0.081 -0.712 L 0.076 -0.717 Q 0.057 -0.735 0.057 -0.74 Q 0.057 -0.75 0.067 -0.75 Q 0.079 -0.75 0.12 -0.709 Q 0.182 -0.647 0.223 -0.562 Q 0.289 -0.426 0.289 -0.25 Z"/></g><g transform="translate(5.3264059701492545,2.480223880597015) scale(0.7,0.7)"><path fill="rgb(46,125,50)" stroke="none" paint-order="stroke fill markers" d=" M 0.40900000000000003 -0.23 L 0.40900000000000003 0.05 Q 0.40900000000000003 0.082 0.389 0.083 Q 0.369 0.083 0.369 0.05 L 0.369 -0.23 L 0.089 -0.23 Q 0.057 -0.23 0.056 -0.25 Q 0.056 -0.27 0.089 -0.27 L 0.369 -0.27 L 0.369 -0.55 Q 0.369 -0.582 0.389 -0.583 Q 0.40900000000000003 -0.583 0.40900000000000003 -0.55 L 0.40900000000000003 -0.27 L 0.6880000000000001 -0.27 Q 0.72 -0.27 0.721 -0.25 Q 0.721 -0.23 0.6880000000000001 -0.23 L 0.40900000000000003 -0.23 Z"/></g><g transform="translate(5.8710059701492545,2.480223880597015) scale(0.7,0.7)"><path fill="rgb(46,125,50)" stroke="none" paint-order="stroke fill markers" d=" M 0.449 -0.17400000000000002 L 0.449 -0.17400000000000002 L 0.421 0 L 0.05 0 Q 0.05 -0.025 0.056 -0.032 L 0.061 -0.037 L 0.253 -0.251 Q 0.358 -0.369 0.358 -0.47200000000000003 Q 0.358 -0.561 0.304 -0.607 L 0.303 -0.608 L 0.302 -0.608 Q 0.27 -0.635 0.224 -0.635 Q 0.152 -0.635 0.109 -0.5730000000000001 Q 0.097 -0.555 0.089 -0.533 Q 0.092 -0.534 0.10200000000000001 -0.534 Q 0.14200000000000002 -0.534 0.153 -0.498 L 0.153 -0.497 Q 0.155 -0.49 0.155 -0.482 Q 0.155 -0.442 0.117 -0.431 Q 0.109 -0.429 0.10300000000000001 -0.429 Q 0.066 -0.429 0.054 -0.46 Q 0.05 -0.47100000000000003 0.05 -0.485 Q 0.05 -0.562 0.109 -0.617 Q 0.162 -0.666 0.23700000000000002 -0.666 Q 0.34700000000000003 -0.666 0.40800000000000003 -0.592 Q 0.443 -0.549 0.448 -0.49 Q 0.449 -0.481 0.449 -0.47200000000000003 Q 0.449 -0.399 0.394 -0.333 Q 0.365 -0.299 0.304 -0.243 L 0.243 -0.189 L 0.233 -0.18 L 0.127 -0.077 L 0.307 -0.077 Q 0.395 -0.077 0.402 -0.085 Q 0.41200000000000003 -0.099 0.424 -0.17400000000000002 L 0.449 -0.17400000000000002 Z"/></g><g transform="translate(6.506218553971061,2.8931158805970147)"><path fill="rgb(46,125,50)" stroke="none" paint-order="stroke fill markers" d=" M 0.675 -0.498 L 0.15 -0.25 L 0.675 -0.002 Q 0.6940000000000001 0.008 0.6940000000000001 0.02 Q 0.6940000000000001 0.036000000000000004 0.679 0.039 Q 0.676 0.04 0.674 0.04 Q 0.669 0.04 0.656 0.033 L 0.10200000000000001 -0.228 Q 0.083 -0.23700000000000002 0.083 -0.25 Q 0.083 -0.263 0.10200000000000001 -0.272 L 0.656 -0.533 Q 0.669 -0.54 0.674 -0.54 Q 0.6900000000000001 -0.54 0.6930000000000001 -0.525 Q 0.6940000000000001 -0.522 0.6940000000000001 -0.52 Q 0.6940000000000001 -0.508 0.675 -0.498 Z"/></g><g transform="translate(7.561996331748838,2.8931158805970147)"><path fill="rgb(46,125,50)" stroke="none" paint-order="stroke fill markers" d=" M 0.334 -0.302 L 0.3 -0.165 Q 0.28300000000000003 -0.097 0.28300000000000003 -0.077 Q 0.28300000000000003 -0.025 0.32 -0.014 Q 0.328 -0.011 0.338 -0.011 Q 0.388 -0.011 0.429 -0.061 Q 0.456 -0.093 0.47100000000000003 -0.14200000000000002 Q 0.47400000000000003 -0.153 0.484 -0.153 Q 0.496 -0.153 0.496 -0.14300000000000002 Q 0.496 -0.11800000000000001 0.465 -0.07100000000000001 Q 0.41100000000000003 0.011 0.336 0.011 Q 0.268 0.011 0.23700000000000002 -0.046 Q 0.231 -0.055 0.228 -0.065 Q 0.20400000000000001 -0.017 0.162 0.002 Q 0.14300000000000002 0.011 0.123 0.011 Q 0.063 0.011 0.039 -0.024 Q 0.029 -0.037 0.029 -0.055 Q 0.029 -0.092 0.061 -0.107 Q 0.07200000000000001 -0.113 0.084 -0.113 Q 0.114 -0.113 0.12 -0.088 Q 0.121 -0.083 0.121 -0.078 Q 0.121 -0.044 0.08700000000000001 -0.028 Q 0.081 -0.025 0.074 -0.024 Q 0.095 -0.011 0.124 -0.011 Q 0.177 -0.011 0.20800000000000002 -0.082 Q 0.214 -0.097 0.219 -0.115 Q 0.273 -0.319 0.273 -0.353 Q 0.267 -0.41500000000000004 0.219 -0.42 Q 0.167 -0.42 0.124 -0.367 L 0.124 -0.366 Q 0.124 -0.365 0.123 -0.365 Q 0.108 -0.34500000000000003 0.096 -0.319 Q 0.091 -0.307 0.08700000000000001 -0.295 L 0.085 -0.289 Q 0.083 -0.278 0.07200000000000001 -0.278 Q 0.06 -0.278 0.06 -0.28800000000000003 Q 0.06 -0.313 0.092 -0.36 Q 0.146 -0.442 0.221 -0.442 Q 0.298 -0.442 0.329 -0.366 Q 0.361 -0.428 0.41400000000000003 -0.44 Q 0.424 -0.442 0.434 -0.442 Q 0.493 -0.442 0.517 -0.40900000000000003 Q 0.527 -0.395 0.527 -0.376 Q 0.527 -0.335 0.49 -0.321 Q 0.481 -0.318 0.47300000000000003 -0.318 Q 0.442 -0.318 0.436 -0.34500000000000003 Q 0.435 -0.34900000000000003 0.435 -0.353 Q 0.435 -0.383 0.464 -0.4 Q 0.47300000000000003 -0.405 0.483 -0.40700000000000003 Q 0.462 -0.42 0.433 -0.42 Q 0.365 -0.42 0.337 -0.314 Q 0.335 -0.308 0.334 -0.302 Z"/></g><g transform="translate(8.411774109526617,2.8931158805970147)"><path fill="rgb(46,125,50)" stroke="none" paint-order="stroke fill markers" d=" M 0.676 -0.595 L 0.15 -0.34600000000000003 L 0.675 -0.098 Q 0.6920000000000001 -0.085 0.6940000000000001 -0.077 Q 0.6940000000000001 -0.061 0.679 -0.058 Q 0.676 -0.057 0.674 -0.057 Q 0.668 -0.057 0.657 -0.063 L 0.10200000000000001 -0.325 Q 0.083 -0.333 0.083 -0.34600000000000003 Q 0.083 -0.359 0.10200000000000001 -0.368 L 0.658 -0.63 Q 0.669 -0.636 0.674 -0.636 Q 0.6900000000000001 -0.636 0.6930000000000001 -0.621 Q 0.6940000000000001 -0.618 0.6940000000000001 -0.616 Q 0.6940000000000001 -0.602 0.676 -0.595 M 0.661 0.137 L 0.116 0.137 Q 0.084 0.137 0.083 0.117 Q 0.083 0.097 0.117 0.097 L 0.66 0.097 Q 0.6920000000000001 0.097 0.6940000000000001 0.117 Q 0.6940000000000001 0.137 0.661 0.137 Z"/></g><g transform="translate(9.467551887304396,2.8931158805970147)"><path fill="rgb(46,125,50)" stroke="none" paint-order="stroke fill markers" d=" M 0.46 -0.32 Q 0.46 -0.17400000000000002 0.423 -0.094 Q 0.364 0.018000000000000002 0.249 0.022 Q 0.158 0.022 0.10300000000000001 -0.05 Q 0.092 -0.063 0.084 -0.079 Q 0.039 -0.162 0.039 -0.32 Q 0.039 -0.467 0.076 -0.547 Q 0.126 -0.659 0.23800000000000002 -0.666 L 0.25 -0.666 Q 0.339 -0.666 0.395 -0.595 L 0.395 -0.594 Q 0.40900000000000003 -0.5760000000000001 0.42 -0.554 Q 0.46 -0.46900000000000003 0.46 -0.32 M 0.249 0 L 0.249 0 Q 0.312 0 0.34600000000000003 -0.061 Q 0.36 -0.088 0.366 -0.125 Q 0.377 -0.189 0.377 -0.332 Q 0.377 -0.47100000000000003 0.367 -0.527 Q 0.34900000000000003 -0.622 0.275 -0.641 Q 0.262 -0.644 0.249 -0.644 Q 0.179 -0.644 0.147 -0.5740000000000001 Q 0.136 -0.55 0.13 -0.516 Q 0.122 -0.462 0.122 -0.332 Q 0.122 -0.181 0.133 -0.121 Q 0.151 -0.025 0.221 -0.004 Q 0.23500000000000001 0 0.249 0 Z"/></g><g transform="translate(9.967551887304396,2.8931158805970147)"><path fill="rgb(46,125,50)" stroke="none" paint-order="stroke fill markers" d=" M 0.18 -0.083 L 0.18 0 L 0.097 0 L 0.097 -0.083 L 0.18 -0.083 Z"/></g><g transform="translate(10.245551887304396,2.8931158805970147)"><path fill="rgb(46,125,50)" stroke="none" paint-order="stroke fill markers" d=" M 0.449 -0.201 L 0.449 -0.201 Q 0.449 -0.098 0.372 -0.031 Q 0.31 0.022 0.231 0.022 Q 0.139 0.022 0.085 -0.055 Q 0.05 -0.10400000000000001 0.05 -0.161 Q 0.05 -0.20700000000000002 0.091 -0.213 Q 0.095 -0.214 0.099 -0.214 Q 0.136 -0.214 0.147 -0.181 Q 0.149 -0.17300000000000001 0.149 -0.165 Q 0.149 -0.133 0.121 -0.121 Q 0.111 -0.116 0.099 -0.116 Q 0.088 -0.116 0.082 -0.11800000000000001 Q 0.1 -0.055 0.159 -0.024 Q 0.192 -0.006 0.229 -0.006 Q 0.296 -0.006 0.336 -0.07100000000000001 Q 0.36 -0.113 0.36 -0.20800000000000002 Q 0.36 -0.292 0.342 -0.334 Q 0.314 -0.398 0.257 -0.398 Q 0.176 -0.398 0.128 -0.328 Q 0.122 -0.319 0.115 -0.319 Q 0.10200000000000001 -0.319 0.101 -0.333 L 0.101 -0.34500000000000003 L 0.101 -0.641 Q 0.101 -0.664 0.111 -0.665 Q 0.115 -0.665 0.123 -0.662 Q 0.186 -0.634 0.256 -0.634 Q 0.328 -0.634 0.392 -0.663 Q 0.397 -0.666 0.4 -0.666 Q 0.41000000000000003 -0.666 0.41000000000000003 -0.655 Q 0.41000000000000003 -0.642 0.378 -0.613 Q 0.31 -0.551 0.217 -0.551 Q 0.17500000000000002 -0.551 0.132 -0.5640000000000001 L 0.132 -0.369 Q 0.184 -0.42 0.259 -0.42 Q 0.34700000000000003 -0.42 0.404 -0.343 Q 0.449 -0.28200000000000003 0.449 -0.201 Z"/></g><g transform="translate(10.745551887304396,2.480223880597015) scale(0.7,0.7)"><path fill="rgb(46,125,50)" stroke="none" paint-order="stroke fill markers" d=" M 0.088 -0.059000000000000004 L 0.088 -0.059000000000000004 L 0.146 -0.29 Q 0.162 -0.354 0.162 -0.374 Q 0.162 -0.42 0.131 -0.42 Q 0.09 -0.42 0.064 -0.325 Q 0.061 -0.314 0.058 -0.301 Q 0.047 -0.279 0.041 -0.278 Q 0.029 -0.278 0.029 -0.28800000000000003 Q 0.029 -0.304 0.048 -0.356 Q 0.054 -0.373 0.06 -0.385 Q 0.084 -0.434 0.12 -0.441 Q 0.127 -0.442 0.134 -0.442 Q 0.188 -0.442 0.214 -0.397 Q 0.224 -0.378 0.226 -0.355 Q 0.29 -0.442 0.382 -0.442 Q 0.433 -0.442 0.464 -0.41600000000000004 Q 0.492 -0.392 0.496 -0.34500000000000003 Q 0.5640000000000001 -0.442 0.659 -0.442 Q 0.748 -0.442 0.769 -0.373 L 0.769 -0.372 Q 0.774 -0.355 0.774 -0.335 Q 0.774 -0.28200000000000003 0.713 -0.115 Q 0.6950000000000001 -0.07100000000000001 0.6950000000000001 -0.044 Q 0.6950000000000001 -0.011 0.719 -0.011 Q 0.781 -0.011 0.8170000000000001 -0.121 L 0.8210000000000001 -0.135 Q 0.8260000000000001 -0.151 0.8310000000000001 -0.152 L 0.8310000000000001 -0.153 L 0.836 -0.153 Q 0.848 -0.153 0.848 -0.14300000000000002 Q 0.848 -0.126 0.8270000000000001 -0.08 Q 0.784 0.011 0.717 0.011 Q 0.666 0.011 0.644 -0.032 Q 0.635 -0.05 0.635 -0.07100000000000001 Q 0.635 -0.091 0.648 -0.126 Q 0.71 -0.29 0.71 -0.35000000000000003 Q 0.71 -0.42 0.656 -0.42 Q 0.5680000000000001 -0.42 0.51 -0.325 Q 0.494 -0.3 0.491 -0.28700000000000003 Q 0.488 -0.274 0.431 -0.046 Q 0.42 -0.003 0.406 0.006 L 0.405 0.007 L 0.404 0.007 Q 0.397 0.011 0.386 0.011 Q 0.361 0.006 0.357 -0.016 L 0.37 -0.075 L 0.39 -0.151 L 0.418 -0.267 Q 0.433 -0.323 0.433 -0.35000000000000003 Q 0.433 -0.42 0.379 -0.42 Q 0.289 -0.42 0.228 -0.32 Q 0.221 -0.309 0.216 -0.298 L 0.203 -0.248 Q 0.198 -0.225 0.186 -0.181 L 0.164 -0.091 Q 0.147 -0.022 0.145 -0.017 Q 0.136 0.009000000000000001 0.108 0.011 Q 0.083 0.006 0.079 -0.016 Q 0.079 -0.014 0.088 -0.059000000000000004 Z"/></g><g transform="translate(11.360151887304395,2.585223880597015) scale(0.5,0.5)"><path fill="rgb(46,125,50)" stroke="none" paint-order="stroke fill markers" d=" M 0.294 -0.64 L 0.294 -0.079 Q 0.294 -0.049 0.306 -0.041 Q 0.323 -0.031 0.387 -0.031 L 0.419 -0.031 L 0.419 0 Q 0.384 -0.003 0.257 -0.003 Q 0.13 -0.003 0.095 0 L 0.095 -0.031 L 0.127 -0.031 Q 0.20400000000000001 -0.031 0.215 -0.049 L 0.216 -0.05 Q 0.22 -0.058 0.22 -0.079 L 0.22 -0.597 Q 0.168 -0.5710000000000001 0.089 -0.5710000000000001 L 0.089 -0.602 Q 0.209 -0.602 0.271 -0.666 Q 0.29 -0.666 0.293 -0.659 L 0.293 -0.659 L 0.293 -0.658 Q 0.294 -0.655 0.294 -0.64 Z"/></g><g transform="translate(11.610151887304395,2.480223880597015) scale(0.7,0.7)"><path fill="rgb(46,125,50)" stroke="none" paint-order="stroke fill markers" d=" M 0.331 0.24 L 0.331 0.24 Q 0.331 0.25 0.321 0.25 Q 0.309 0.25 0.268 0.209 Q 0.20600000000000002 0.147 0.165 0.062 Q 0.099 -0.074 0.099 -0.25 Q 0.099 -0.419 0.162 -0.555 Q 0.214 -0.666 0.294 -0.733 Q 0.315 -0.75 0.321 -0.75 Q 0.331 -0.75 0.331 -0.74 Q 0.331 -0.735 0.318 -0.723 Q 0.157 -0.559 0.157 -0.25 Q 0.157 0.058 0.314 0.218 Q 0.331 0.23500000000000001 0.331 0.24 Z"/></g><g transform="translate(11.882451887304395,2.480223880597015) scale(0.7,0.7)"><path fill="rgb(46,125,50)" stroke="none" paint-order="stroke fill markers" d=" M 0.334 -0.302 L 0.3 -0.165 Q 0.28300000000000003 -0.097 0.28300000000000003 -0.077 Q 0.28300000000000003 -0.025 0.32 -0.014 Q 0.328 -0.011 0.338 -0.011 Q 0.388 -0.011 0.429 -0.061 Q 0.456 -0.093 0.47100000000000003 -0.14200000000000002 Q 0.47400000000000003 -0.153 0.484 -0.153 Q 0.496 -0.153 0.496 -0.14300000000000002 Q 0.496 -0.11800000000000001 0.465 -0.07100000000000001 Q 0.41100000000000003 0.011 0.336 0.011 Q 0.268 0.011 0.23700000000000002 -0.046 Q 0.231 -0.055 0.228 -0.065 Q 0.20400000000000001 -0.017 0.162 0.002 Q 0.14300000000000002 0.011 0.123 0.011 Q 0.063 0.011 0.039 -0.024 Q 0.029 -0.037 0.029 -0.055 Q 0.029 -0.092 0.061 -0.107 Q 0.07200000000000001 -0.113 0.084 -0.113 Q 0.114 -0.113 0.12 -0.088 Q 0.121 -0.083 0.121 -0.078 Q 0.121 -0.044 0.08700000000000001 -0.028 Q 0.081 -0.025 0.074 -0.024 Q 0.095 -0.011 0.124 -0.011 Q 0.177 -0.011 0.20800000000000002 -0.082 Q 0.214 -0.097 0.219 -0.115 Q 0.273 -0.319 0.273 -0.353 Q 0.267 -0.41500000000000004 0.219 -0.42 Q 0.167 -0.42 0.124 -0.367 L 0.124 -0.366 Q 0.124 -0.365 0.123 -0.365 Q 0.108 -0.34500000000000003 0.096 -0.319 Q 0.091 -0.307 0.08700000000000001 -0.295 L 0.085 -0.289 Q 0.083 -0.278 0.07200000000000001 -0.278 Q 0.06 -0.278 0.06 -0.28800000000000003 Q 0.06 -0.313 0.092 -0.36 Q 0.146 -0.442 0.221 -0.442 Q 0.298 -0.442 0.329 -0.366 Q 0.361 -0.428 0.41400000000000003 -0.44 Q 0.424 -0.442 0.434 -0.442 Q 0.493 -0.442 0.517 -0.40900000000000003 Q 0.527 -0.395 0.527 -0.376 Q 0.527 -0.335 0.49 -0.321 Q 0.481 -0.318 0.47300000000000003 -0.318 Q 0.442 -0.318 0.436 -0.34500000000000003 Q 0.435 -0.34900000000000003 0.435 -0.353 Q 0.435 -0.383 0.464 -0.4 Q 0.47300000000000003 -0.405 0.483 -0.40700000000000003 Q 0.462 -0.42 0.433 -0.42 Q 0.365 -0.42 0.337 -0.314 Q 0.335 -0.308 0.334 -0.302 Z"/></g><g transform="translate(12.282851887304394,2.480223880597015) scale(0.7,0.7)"><path fill="rgb(46,125,50)" stroke="none" paint-order="stroke fill markers" d=" M 0.289 -0.25 L 0.289 -0.25 Q 0.289 -0.081 0.226 0.055 Q 0.17400000000000002 0.166 0.094 0.233 Q 0.073 0.25 0.067 0.25 Q 0.057 0.25 0.057 0.24 Q 0.057 0.23500000000000001 0.07 0.223 Q 0.231 0.059000000000000004 0.231 -0.25 Q 0.231 -0.555 0.081 -0.712 L 0.076 -0.717 Q 0.057 -0.735 0.057 -0.74 Q 0.057 -0.75 0.067 -0.75 Q 0.079 -0.75 0.12 -0.709 Q 0.182 -0.647 0.223 -0.562 Q 0.289 -0.426 0.289 -0.25 Z"/></g></g><g transform="scale(47,47)"><g transform="translate(7.0638297872340425,17.86442289361702)"><path fill="rgb(0,0,0)" stroke="none" paint-order="stroke fill markers" d=" M 0.457 -0.326 Q 0.457 -0.17500000000000002 0.417 -0.088 Q 0.393 -0.036000000000000004 0.34850000000000003 -0.007 Q 0.304 0.022 0.249 0.022 Q 0.217 0.022 0.1875 0.012 Q 0.158 0.002 0.1265 -0.027 Q 0.095 -0.056 0.076 -0.101 Q 0.042 -0.184 0.042 -0.326 Q 0.042 -0.47800000000000004 0.08 -0.562 Q 0.108 -0.624 0.154 -0.651 Q 0.2 -0.678 0.25 -0.678 Q 0.294 -0.678 0.3385 -0.6545 Q 0.383 -0.631 0.41100000000000003 -0.579 Q 0.457 -0.49 0.457 -0.326 M 0.25 -0.039 Q 0.33 -0.039 0.361 -0.146 Q 0.379 -0.209 0.379 -0.338 Q 0.379 -0.467 0.36 -0.523 Q 0.354 -0.538 0.34950000000000003 -0.5465 Q 0.34500000000000003 -0.555 0.332 -0.5750000000000001 Q 0.319 -0.595 0.2975 -0.606 Q 0.276 -0.617 0.249 -0.617 Q 0.169 -0.617 0.137 -0.516 Q 0.12 -0.461 0.12 -0.338 Q 0.12 -0.21 0.137 -0.149 Q 0.168 -0.039 0.25 -0.039 Z"/></g><g transform="translate(7.84160756501182,17.86442289361702)"><path fill="rgb(0,0,0)" stroke="none" paint-order="stroke fill markers" d=" M 0.676 -0.595 L 0.15 -0.34600000000000003 L 0.675 -0.098 Q 0.6920000000000001 -0.085 0.6940000000000001 -0.077 Q 0.6940000000000001 -0.061 0.679 -0.058 Q 0.676 -0.057 0.674 -0.057 Q 0.668 -0.057 0.657 -0.063 L 0.10200000000000001 -0.325 Q 0.083 -0.333 0.083 -0.34600000000000003 Q 0.083 -0.359 0.10200000000000001 -0.368 L 0.658 -0.63 Q 0.669 -0.636 0.674 -0.636 Q 0.6900000000000001 -0.636 0.6930000000000001 -0.621 Q 0.6940000000000001 -0.618 0.6940000000000001 -0.616 Q 0.6940000000000001 -0.602 0.676 -0.595 M 0.661 0.137 L 0.116 0.137 Q 0.084 0.137 0.083 0.117 Q 0.083 0.097 0.117 0.097 L 0.66 0.097 Q 0.6920000000000001 0.097 0.6940000000000001 0.117 Q 0.6940000000000001 0.137 0.661 0.137 Z"/></g><g transform="translate(8.8973853427896,17.86442289361702)"><path fill="rgb(0,0,0)" stroke="none" paint-order="stroke fill markers" d=" M 0.26 -0.229 L 0.46 0 L 0.377 0 L 0.227 -0.188 L 0.082 0 L 0 0 L 0.194 -0.229 L 0.006 -0.444 L 0.089 -0.444 L 0.227 -0.279 L 0.361 -0.444 L 0.443 -0.444 L 0.26 -0.229 Z"/></g><g transform="translate(9.636163120567378,17.86442289361702)"><path fill="rgb(0,0,0)" stroke="none" paint-order="stroke fill markers" d=" M 0.676 -0.595 L 0.15 -0.34600000000000003 L 0.675 -0.098 Q 0.6920000000000001 -0.085 0.6940000000000001 -0.077 Q 0.6940000000000001 -0.061 0.679 -0.058 Q 0.676 -0.057 0.674 -0.057 Q 0.668 -0.057 0.657 -0.063 L 0.10200000000000001 -0.325 Q 0.083 -0.333 0.083 -0.34600000000000003 Q 0.083 -0.359 0.10200000000000001 -0.368 L 0.658 -0.63 Q 0.669 -0.636 0.674 -0.636 Q 0.6900000000000001 -0.636 0.6930000000000001 -0.621 Q 0.6940000000000001 -0.618 0.6940000000000001 -0.616 Q 0.6940000000000001 -0.602 0.676 -0.595 M 0.661 0.137 L 0.116 0.137 Q 0.084 0.137 0.083 0.117 Q 0.083 0.097 0.117 0.097 L 0.66 0.097 Q 0.6920000000000001 0.097 0.6940000000000001 0.117 Q 0.6940000000000001 0.137 0.661 0.137 Z"/></g><g transform="translate(10.717377426257498,17.18791489361702)"><path fill="rgb(0,0,0)" stroke="none" paint-order="stroke fill markers" d=" M 0.299 -0.678 L 0.299 -0.058 L 0.424 -0.058 L 0.424 0 L 0.095 0 L 0.095 -0.058 L 0.22 -0.058 L 0.22 -0.578 Q 0.169 -0.556 0.089 -0.554 L 0.089 -0.612 Q 0.22 -0.617 0.279 -0.678 L 0.299 -0.678 Z"/></g><rect fill="rgb(0,0,0)" stroke="none" x="10.717377426257498" y="17.59442339361702" width="0.5" height="0.039999"/><g transform="translate(10.717377426257498,18.55037389361702)"><path fill="rgb(0,0,0)" stroke="none" paint-order="stroke fill markers" d=" M 0.17400000000000002 -0.188 L 0.251 -0.259 Q 0.281 -0.29 0.2955 -0.3055 Q 0.31 -0.321 0.33 -0.34900000000000003 Q 0.35000000000000003 -0.377 0.3585 -0.404 Q 0.367 -0.431 0.367 -0.461 Q 0.367 -0.523 0.328 -0.5685 Q 0.289 -0.614 0.222 -0.614 Q 0.161 -0.614 0.1315 -0.5730000000000001 Q 0.10200000000000001 -0.532 0.083 -0.459 Q 0.066 -0.484 0.061 -0.488 Q 0.06 -0.489 0.0545 -0.4965 Q 0.049 -0.504 0.042 -0.514 Q 0.088 -0.678 0.23600000000000002 -0.678 Q 0.332 -0.678 0.3905 -0.6155 Q 0.449 -0.553 0.449 -0.463 Q 0.449 -0.424 0.4315 -0.3865 Q 0.41400000000000003 -0.34900000000000003 0.398 -0.3305 Q 0.382 -0.312 0.35000000000000003 -0.28 Q 0.34 -0.271 0.3055 -0.241 Q 0.271 -0.211 0.261 -0.202 Q 0.254 -0.196 0.1975 -0.14100000000000001 Q 0.14100000000000001 -0.08600000000000001 0.122 -0.07 L 0.231 -0.07 Q 0.23700000000000002 -0.07 0.249 -0.07050000000000001 Q 0.261 -0.07100000000000001 0.267 -0.07100000000000001 L 0.449 -0.07100000000000001 L 0.449 0 L 0.05 0 L 0.05 -0.064 L 0.17400000000000002 -0.188 Z"/></g></g><g transform="scale(47,47)"/></g></g></svg>