<svg version="1.1" xmlns="http://www.w3.org/2000/svg" xmlns:xlink="http://www.w3.org/1999/xlink" width="934" height="888"><defs><clipPath id="kBxvMlqXlTDN"><path fill="none" stroke="none" d=" M 0 0 L 934 0 L 934 888 L 0 888 L 0 0 Z"/></clipPath></defs><g transform="scale(1,1)" clip-path="url(#kBxvMlqXlTDN)"><g><rect fill="rgb(255,255,255)" stroke="none" x="0" y="0" width="934" height="888" fill-opacity="1"/><path fill="none" stroke="rgb(192,192,192)" paint-order="fill stroke markers" d=" M 0.5 0.5 L 0.5 888.5 M 0.5 0.5 L 0.5 888.5 M 162.5 0.5 L 162.5 888.5 M 243.5 0.5 L 243.5 888.5 M 325.5 0.5 L 325.5 888.5 M 406.5 0.5 L 406.5 888.5 M 487.5 0.5 L 487.5 888.5 M 568.5 0.5 L 568.5 888.5 M 649.5 0.5 L 649.5 888.5 M 731.5 0.5 L 731.5 888.5 M 812.5 0.5 L 812.5 888.5 M 893.5 0.5 L 893.5 888.5" stroke-opacity="1" stroke-linecap="round" stroke-linejoin="round" stroke-miterlimit="10"/><path fill="none" stroke="rgb(192,192,192)" paint-order="fill stroke markers" d=" M 16.5 0.5 L 16.5 888.5 M 32.5 0.5 L 32.5 888.5 M 49.5 0.5 L 49.5 888.5 M 65.5 0.5 L 65.5 888.5 M 97.5 0.5 L 97.5 888.5 M 113.5 0.5 L 113.5 888.5 M 130.5 0.5 L 130.5 888.5 M 146.5 0.5 L 146.5 888.5 M 178.5 0.5 L 178.5 888.5 M 195.5 0.5 L 195.5 888.5 M 211.5 0.5 L 211.5 888.5 M 227.5 0.5 L 227.5 888.5 M 260.5 0.5 L 260.5 888.5 M 276.5 0.5 L 276.5 888.5 M 292.5 0.5 L 292.5 888.5 M 308.5 0.5 L 308.5 888.5 M 341.5 0.5 L 341.5 888.5 M 357.5 0.5 L 357.5 888.5 M 373.5 0.5 L 373.5 888.5 M 390.5 0.5 L 390.5 888.5 M 422.5 0.5 L 422.5 888.5 M 438.5 0.5 L 438.5 888.5 M 455.5 0.5 L 455.5 888.5 M 471.5 0.5 L 471.5 888.5 M 503.5 0.5 L 503.5 888.5 M 519.5 0.5 L 519.5 888.5 M 536.5 0.5 L 536.5 888.5 M 552.5 0.5 L 552.5 888.5 M 584.5 0.5 L 584.5 888.5 M 601.5 0.5 L 601.5 888.5 M 617.5 0.5 L 617.5 888.5 M 633.5 0.5 L 633.5 888.5 M 666.5 0.5 L 666.5 888.5 M 682.5 0.5 L 682.5 888.5 M 698.5 0.5 L 698.5 888.5 M 714.5 0.5 L 714.5 888.5 M 747.5 0.5 L 747.5 888.5 M 763.5 0.5 L 763.5 888.5 M 779.5 0.5 L 779.5 888.5 M 796.5 0.5 L 796.5 888.5 M 828.5 0.5 L 828.5 888.5 M 844.5 0.5 L 844.5 888.5 M 861.5 0.5 L 861.5 888.5 M 877.5 0.5 L 877.5 888.5 M 909.5 0.5 L 909.5 888.5 M 925.5 0.5 L 925.5 888.5" stroke-opacity="0.23529411764705882" stroke-linecap="round" stroke-linejoin="round" stroke-miterlimit="10"/><path fill="none" stroke="rgb(192,192,192)" paint-order="fill stroke markers" d=" M 0.5 31.5 L 934.5 31.5 M 0.5 31.5 L 934.5 31.5 M 0.5 112.5 L 934.5 112.5 M 0.5 194.5 L 934.5 194.5 M 0.5 275.5 L 934.5 275.5 M 0.5 356.5 L 934.5 356.5 M 0.5 437.5 L 934.5 437.5 M 0.5 518.5 L 934.5 518.5 M 0.5 599.5 L 934.5 599.5 M 0.5 681.5 L 934.5 681.5 M 0.5 762.5 L 934.5 762.5" stroke-opacity="1" stroke-linecap="round" stroke-linejoin="round" stroke-miterlimit="10"/><path fill="none" stroke="rgb(192,192,192)" paint-order="fill stroke markers" d=" M 0.5 15.5 L 934.5 15.5 M 0.5 15.5 L 934.5 15.5 M 0.5 47.5 L 934.5 47.5 M 0.5 64.5 L 934.5 64.5 M 0.5 80.5 L 934.5 80.5 M 0.5 96.5 L 934.5 96.5 M 0.5 129.5 L 934.5 129.5 M 0.5 145.5 L 934.5 145.5 M 0.5 161.5 L 934.5 161.5 M 0.5 177.5 L 934.5 177.5 M 0.5 210.5 L 934.5 210.5 M 0.5 226.5 L 934.5 226.5 M 0.5 242.5 L 934.5 242.5 M 0.5 258.5 L 934.5 258.5 M 0.5 291.5 L 934.5 291.5 M 0.5 307.5 L 934.5 307.5 M 0.5 323.5 L 934.5 323.5 M 0.5 340.5 L 934.5 340.5 M 0.5 372.5 L 934.5 372.5 M 0.5 388.5 L 934.5 388.5 M 0.5 405.5 L 934.5 405.5 M 0.5 421.5 L 934.5 421.5 M 0.5 453.5 L 934.5 453.5 M 0.5 470.5 L 934.5 470.5 M 0.5 486.5 L 934.5 486.5 M 0.5 502.5 L 934.5 502.5 M 0.5 535.5 L 934.5 535.5 M 0.5 551.5 L 934.5 551.5 M 0.5 567.5 L 934.5 567.5 M 0.5 583.5 L 934.5 583.5 M 0.5 616.5 L 934.5 616.5 M 0.5 632.5 L 934.5 632.5 M 0.5 648.5 L 934.5 648.5 M 0.5 664.5 L 934.5 664.5 M 0.5 697.5 L 934.5 697.5 M 0.5 713.5 L 934.5 713.5 M 0.5 729.5 L 934.5 729.5 M 0.5 746.5 L 934.5 746.5 M 0.5 778.5 L 934.5 778.5 M 0.5 794.5 L 934.5 794.5 M 0.5 811.5 L 934.5 811.5 M 0.5 827.5 L 934.5 827.5 M 0.5 859.5 L 934.5 859.5 M 0.5 876.5 L 934.5 876.5" stroke-opacity="0.23529411764705882" stroke-linecap="round" stroke-linejoin="round" stroke-miterlimit="10"/><path fill="none" stroke="rgb(0,0,0)" paint-order="fill stroke markers" d=" M 81.5 2.5 L 81.5 888.5" stroke-opacity="1" stroke-miterlimit="10"/><path fill="none" stroke="rgb(0,0,0)" paint-order="fill stroke markers" d=" M 81.5 1.5 L 73.5 9.5" stroke-opacity="1" stroke-miterlimit="10"/><path fill="none" stroke="rgb(0,0,0)" paint-order="fill stroke markers" d=" M 81.5 1.5 L 89.5 9.5" stroke-opacity="1" stroke-miterlimit="10"/><path fill="none" stroke="rgb(0,0,0)" paint-order="fill stroke markers" d=" M 0.5 843.5 L 932.5 843.5" stroke-opacity="1" stroke-miterlimit="10"/><path fill="none" stroke="rgb(0,0,0)" paint-order="fill stroke markers" d=" M 933.5 843.5 L 925.5 835.5" stroke-opacity="1" stroke-miterlimit="10"/><path fill="none" stroke="rgb(0,0,0)" paint-order="fill stroke markers" d=" M 933.5 843.5 L 925.5 851.5" stroke-opacity="1" stroke-miterlimit="10"/><text fill="rgb(0,0,0)" stroke="none" font-family="geogebra-sans-serif, sans-serif" font-size="24px" font-style="normal" font-weight="normal" text-decoration="normal" x="145" y="871" text-anchor="start" dominant-baseline="alphabetic" fill-opacity="1">0.1</text><text fill="none" stroke="rgb(255,255,255)" font-family="geogebra-sans-serif, sans-serif" font-size="24px" font-style="normal" font-weight="normal" text-decoration="normal" x="145" y="871" text-anchor="start" dominant-baseline="alphabetic" stroke-opacity="1" stroke-linejoin="bevel" stroke-miterlimit="10" stroke-width="3">0.1</text><text fill="rgb(0,0,0)" stroke="none" font-family="geogebra-sans-serif, sans-serif" font-size="24px" font-style="normal" font-weight="normal" text-decoration="normal" x="145" y="871" text-anchor="start" dominant-baseline="alphabetic" fill-opacity="1">0.1</text><text fill="rgb(0,0,0)" stroke="none" font-family="geogebra-sans-serif, sans-serif" font-size="24px" font-style="normal" font-weight="normal" text-decoration="normal" x="226" y="871" text-anchor="start" dominant-baseline="alphabetic" fill-opacity="1">0.2</text><text fill="none" stroke="rgb(255,255,255)" font-family="geogebra-sans-serif, sans-serif" font-size="24px" font-style="normal" font-weight="normal" text-decoration="normal" x="226" y="871" text-anchor="start" dominant-baseline="alphabetic" stroke-opacity="1" stroke-linejoin="bevel" stroke-miterlimit="10" stroke-width="3">0.2</text><text fill="rgb(0,0,0)" stroke="none" font-family="geogebra-sans-serif, sans-serif" font-size="24px" font-style="normal" font-weight="normal" text-decoration="normal" x="226" y="871" text-anchor="start" dominant-baseline="alphabetic" fill-opacity="1">0.2</text><text fill="rgb(0,0,0)" stroke="none" font-family="geogebra-sans-serif, sans-serif" font-size="24px" font-style="normal" font-weight="normal" text-decoration="normal" x="308" y="871" text-anchor="start" dominant-baseline="alphabetic" fill-opacity="1">0.3</text><text fill="none" stroke="rgb(255,255,255)" font-family="geogebra-sans-serif, sans-serif" font-size="24px" font-style="normal" font-weight="normal" text-decoration="normal" x="308" y="871" text-anchor="start" dominant-baseline="alphabetic" stroke-opacity="1" stroke-linejoin="bevel" stroke-miterlimit="10" stroke-width="3">0.3</text><text fill="rgb(0,0,0)" stroke="none" font-family="geogebra-sans-serif, sans-serif" font-size="24px" font-style="normal" font-weight="normal" text-decoration="normal" x="308" y="871" text-anchor="start" dominant-baseline="alphabetic" fill-opacity="1">0.3</text><text fill="rgb(0,0,0)" stroke="none" font-family="geogebra-sans-serif, sans-serif" font-size="24px" font-style="normal" font-weight="normal" text-decoration="normal" x="389" y="871" text-anchor="start" dominant-baseline="alphabetic" fill-opacity="1">0.4</text><text fill="none" stroke="rgb(255,255,255)" font-family="geogebra-sans-serif, sans-serif" font-size="24px" font-style="normal" font-weight="normal" text-decoration="normal" x="389" y="871" text-anchor="start" dominant-baseline="alphabetic" stroke-opacity="1" stroke-linejoin="bevel" stroke-miterlimit="10" stroke-width="3">0.4</text><text fill="rgb(0,0,0)" stroke="none" font-family="geogebra-sans-serif, sans-serif" font-size="24px" font-style="normal" font-weight="normal" text-decoration="normal" x="389" y="871" text-anchor="start" dominant-baseline="alphabetic" fill-opacity="1">0.4</text><text fill="rgb(0,0,0)" stroke="none" font-family="geogebra-sans-serif, sans-serif" font-size="24px" font-style="normal" font-weight="normal" text-decoration="normal" x="470" y="871" text-anchor="start" dominant-baseline="alphabetic" fill-opacity="1">0.5</text><text fill="none" stroke="rgb(255,255,255)" font-family="geogebra-sans-serif, sans-serif" font-size="24px" font-style="normal" font-weight="normal" text-decoration="normal" x="470" y="871" text-anchor="start" dominant-baseline="alphabetic" stroke-opacity="1" stroke-linejoin="bevel" stroke-miterlimit="10" stroke-width="3">0.5</text><text fill="rgb(0,0,0)" stroke="none" font-family="geogebra-sans-serif, sans-serif" font-size="24px" font-style="normal" font-weight="normal" text-decoration="normal" x="470" y="871" text-anchor="start" dominant-baseline="alphabetic" fill-opacity="1">0.5</text><text fill="rgb(0,0,0)" stroke="none" font-family="geogebra-sans-serif, sans-serif" font-size="24px" font-style="normal" font-weight="normal" text-decoration="normal" x="551" y="871" text-anchor="start" dominant-baseline="alphabetic" fill-opacity="1">0.6</text><text fill="none" stroke="rgb(255,255,255)" font-family="geogebra-sans-serif, sans-serif" font-size="24px" font-style="normal" font-weight="normal" text-decoration="normal" x="551" y="871" text-anchor="start" dominant-baseline="alphabetic" stroke-opacity="1" stroke-linejoin="bevel" stroke-miterlimit="10" stroke-width="3">0.6</text><text fill="rgb(0,0,0)" stroke="none" font-family="geogebra-sans-serif, sans-serif" font-size="24px" font-style="normal" font-weight="normal" text-decoration="normal" x="551" y="871" text-anchor="start" dominant-baseline="alphabetic" fill-opacity="1">0.6</text><text fill="rgb(0,0,0)" stroke="none" font-family="geogebra-sans-serif, sans-serif" font-size="24px" font-style="normal" font-weight="normal" text-decoration="normal" x="632" y="871" text-anchor="start" dominant-baseline="alphabetic" fill-opacity="1">0.7</text><text fill="none" stroke="rgb(255,255,255)" font-family="geogebra-sans-serif, sans-serif" font-size="24px" font-style="normal" font-weight="normal" text-decoration="normal" x="632" y="871" text-anchor="start" dominant-baseline="alphabetic" stroke-opacity="1" stroke-linejoin="bevel" stroke-miterlimit="10" stroke-width="3">0.7</text><text fill="rgb(0,0,0)" stroke="none" font-family="geogebra-sans-serif, sans-serif" font-size="24px" font-style="normal" font-weight="normal" text-decoration="normal" x="632" y="871" text-anchor="start" dominant-baseline="alphabetic" fill-opacity="1">0.7</text><text fill="rgb(0,0,0)" stroke="none" font-family="geogebra-sans-serif, sans-serif" font-size="24px" font-style="normal" font-weight="normal" text-decoration="normal" x="714" y="871" text-anchor="start" dominant-baseline="alphabetic" fill-opacity="1">0.8</text><text fill="none" stroke="rgb(255,255,255)" font-family="geogebra-sans-serif, sans-serif" font-size="24px" font-style="normal" font-weight="normal" text-decoration="normal" x="714" y="871" text-anchor="start" dominant-baseline="alphabetic" stroke-opacity="1" stroke-linejoin="bevel" stroke-miterlimit="10" stroke-width="3">0.8</text><text fill="rgb(0,0,0)" stroke="none" font-family="geogebra-sans-serif, sans-serif" font-size="24px" font-style="normal" font-weight="normal" text-decoration="normal" x="714" y="871" text-anchor="start" dominant-baseline="alphabetic" fill-opacity="1">0.8</text><text fill="rgb(0,0,0)" stroke="none" font-family="geogebra-sans-serif, sans-serif" font-size="24px" font-style="normal" font-weight="normal" text-decoration="normal" x="795" y="871" text-anchor="start" dominant-baseline="alphabetic" fill-opacity="1">0.9</text><text fill="none" stroke="rgb(255,255,255)" font-family="geogebra-sans-serif, sans-serif" font-size="24px" font-style="normal" font-weight="normal" text-decoration="normal" x="795" y="871" text-anchor="start" dominant-baseline="alphabetic" stroke-opacity="1" stroke-linejoin="bevel" stroke-miterlimit="10" stroke-width="3">0.9</text><text fill="rgb(0,0,0)" stroke="none" font-family="geogebra-sans-serif, sans-serif" font-size="24px" font-style="normal" font-weight="normal" text-decoration="normal" x="795" y="871" text-anchor="start" dominant-baseline="alphabetic" fill-opacity="1">0.9</text><text fill="rgb(0,0,0)" stroke="none" font-family="geogebra-sans-serif, sans-serif" font-size="24px" font-style="normal" font-weight="normal" text-decoration="normal" x="888" y="871" text-anchor="start" dominant-baseline="alphabetic" fill-opacity="1">1</text><text fill="none" stroke="rgb(255,255,255)" font-family="geogebra-sans-serif, sans-serif" font-size="24px" font-style="normal" font-weight="normal" text-decoration="normal" x="888" y="871" text-anchor="start" dominant-baseline="alphabetic" stroke-opacity="1" stroke-linejoin="bevel" stroke-miterlimit="10" stroke-width="3">1</text><text fill="rgb(0,0,0)" stroke="none" font-family="geogebra-sans-serif, sans-serif" font-size="24px" font-style="normal" font-weight="normal" text-decoration="normal" x="888" y="871" text-anchor="start" dominant-baseline="alphabetic" fill-opacity="1">1</text><text fill="rgb(0,0,0)" stroke="none" font-family="geogebra-sans-serif, sans-serif" font-size="24px" font-style="normal" font-weight="normal" text-decoration="normal" x="33" y="773" text-anchor="start" dominant-baseline="alphabetic" fill-opacity="1">0.1</text><text fill="none" stroke="rgb(255,255,255)" font-family="geogebra-sans-serif, sans-serif" font-size="24px" font-style="normal" font-weight="normal" text-decoration="normal" x="33" y="773" text-anchor="start" dominant-baseline="alphabetic" stroke-opacity="1" stroke-linejoin="bevel" stroke-miterlimit="10" stroke-width="3">0.1</text><text fill="rgb(0,0,0)" stroke="none" font-family="geogebra-sans-serif, sans-serif" font-size="24px" font-style="normal" font-weight="normal" text-decoration="normal" x="33" y="773" text-anchor="start" dominant-baseline="alphabetic" fill-opacity="1">0.1</text><text fill="rgb(0,0,0)" stroke="none" font-family="geogebra-sans-serif, sans-serif" font-size="24px" font-style="normal" font-weight="normal" text-decoration="normal" x="33" y="692" text-anchor="start" dominant-baseline="alphabetic" fill-opacity="1">0.2</text><text fill="none" stroke="rgb(255,255,255)" font-family="geogebra-sans-serif, sans-serif" font-size="24px" font-style="normal" font-weight="normal" text-decoration="normal" x="33" y="692" text-anchor="start" dominant-baseline="alphabetic" stroke-opacity="1" stroke-linejoin="bevel" stroke-miterlimit="10" stroke-width="3">0.2</text><text fill="rgb(0,0,0)" stroke="none" font-family="geogebra-sans-serif, sans-serif" font-size="24px" font-style="normal" font-weight="normal" text-decoration="normal" x="33" y="692" text-anchor="start" dominant-baseline="alphabetic" fill-opacity="1">0.2</text><text fill="rgb(0,0,0)" stroke="none" font-family="geogebra-sans-serif, sans-serif" font-size="24px" font-style="normal" font-weight="normal" text-decoration="normal" x="33" y="610" text-anchor="start" dominant-baseline="alphabetic" fill-opacity="1">0.3</text><text fill="none" stroke="rgb(255,255,255)" font-family="geogebra-sans-serif, sans-serif" font-size="24px" font-style="normal" font-weight="normal" text-decoration="normal" x="33" y="610" text-anchor="start" dominant-baseline="alphabetic" stroke-opacity="1" stroke-linejoin="bevel" stroke-miterlimit="10" stroke-width="3">0.3</text><text fill="rgb(0,0,0)" stroke="none" font-family="geogebra-sans-serif, sans-serif" font-size="24px" font-style="normal" font-weight="normal" text-decoration="normal" x="33" y="610" text-anchor="start" dominant-baseline="alphabetic" fill-opacity="1">0.3</text><text fill="rgb(0,0,0)" stroke="none" font-family="geogebra-sans-serif, sans-serif" font-size="24px" font-style="normal" font-weight="normal" text-decoration="normal" x="33" y="529" text-anchor="start" dominant-baseline="alphabetic" fill-opacity="1">0.4</text><text fill="none" stroke="rgb(255,255,255)" font-family="geogebra-sans-serif, sans-serif" font-size="24px" font-style="normal" font-weight="normal" text-decoration="normal" x="33" y="529" text-anchor="start" dominant-baseline="alphabetic" stroke-opacity="1" stroke-linejoin="bevel" stroke-miterlimit="10" stroke-width="3">0.4</text><text fill="rgb(0,0,0)" stroke="none" font-family="geogebra-sans-serif, sans-serif" font-size="24px" font-style="normal" font-weight="normal" text-decoration="normal" x="33" y="529" text-anchor="start" dominant-baseline="alphabetic" fill-opacity="1">0.4</text><text fill="rgb(0,0,0)" stroke="none" font-family="geogebra-sans-serif, sans-serif" font-size="24px" font-style="normal" font-weight="normal" text-decoration="normal" x="33" y="448" text-anchor="start" dominant-baseline="alphabetic" fill-opacity="1">0.5</text><text fill="none" stroke="rgb(255,255,255)" font-family="geogebra-sans-serif, sans-serif" font-size="24px" font-style="normal" font-weight="normal" text-decoration="normal" x="33" y="448" text-anchor="start" dominant-baseline="alphabetic" stroke-opacity="1" stroke-linejoin="bevel" stroke-miterlimit="10" stroke-width="3">0.5</text><text fill="rgb(0,0,0)" stroke="none" font-family="geogebra-sans-serif, sans-serif" font-size="24px" font-style="normal" font-weight="normal" text-decoration="normal" x="33" y="448" text-anchor="start" dominant-baseline="alphabetic" fill-opacity="1">0.5</text><text fill="rgb(0,0,0)" stroke="none" font-family="geogebra-sans-serif, sans-serif" font-size="24px" font-style="normal" font-weight="normal" text-decoration="normal" x="33" y="367" text-anchor="start" dominant-baseline="alphabetic" fill-opacity="1">0.6</text><text fill="none" stroke="rgb(255,255,255)" font-family="geogebra-sans-serif, sans-serif" font-size="24px" font-style="normal" font-weight="normal" text-decoration="normal" x="33" y="367" text-anchor="start" dominant-baseline="alphabetic" stroke-opacity="1" stroke-linejoin="bevel" stroke-miterlimit="10" stroke-width="3">0.6</text><text fill="rgb(0,0,0)" stroke="none" font-family="geogebra-sans-serif, sans-serif" font-size="24px" font-style="normal" font-weight="normal" text-decoration="normal" x="33" y="367" text-anchor="start" dominant-baseline="alphabetic" fill-opacity="1">0.6</text><text fill="rgb(0,0,0)" stroke="none" font-family="geogebra-sans-serif, sans-serif" font-size="24px" font-style="normal" font-weight="normal" text-decoration="normal" x="33" y="286" text-anchor="start" dominant-baseline="alphabetic" fill-opacity="1">0.7</text><text fill="none" stroke="rgb(255,255,255)" font-family="geogebra-sans-serif, sans-serif" font-size="24px" font-style="normal" font-weight="normal" text-decoration="normal" x="33" y="286" text-anchor="start" dominant-baseline="alphabetic" stroke-opacity="1" stroke-linejoin="bevel" stroke-miterlimit="10" stroke-width="3">0.7</text><text fill="rgb(0,0,0)" stroke="none" font-family="geogebra-sans-serif, sans-serif" font-size="24px" font-style="normal" font-weight="normal" text-decoration="normal" x="33" y="286" text-anchor="start" dominant-baseline="alphabetic" fill-opacity="1">0.7</text><text fill="rgb(0,0,0)" stroke="none" font-family="geogebra-sans-serif, sans-serif" font-size="24px" font-style="normal" font-weight="normal" text-decoration="normal" x="33" y="205" text-anchor="start" dominant-baseline="alphabetic" fill-opacity="1">0.8</text><text fill="none" stroke="rgb(255,255,255)" font-family="geogebra-sans-serif, sans-serif" font-size="24px" font-style="normal" font-weight="normal" text-decoration="normal" x="33" y="205" text-anchor="start" dominant-baseline="alphabetic" stroke-opacity="1" stroke-linejoin="bevel" stroke-miterlimit="10" stroke-width="3">0.8</text><text fill="rgb(0,0,0)" stroke="none" font-family="geogebra-sans-serif, sans-serif" font-size="24px" font-style="normal" font-weight="normal" text-decoration="normal" x="33" y="205" text-anchor="start" dominant-baseline="alphabetic" fill-opacity="1">0.8</text><text fill="rgb(0,0,0)" stroke="none" font-family="geogebra-sans-serif, sans-serif" font-size="24px" font-style="normal" font-weight="normal" text-decoration="normal" x="33" y="123" text-anchor="start" dominant-baseline="alphabetic" fill-opacity="1">0.9</text><text fill="none" stroke="rgb(255,255,255)" font-family="geogebra-sans-serif, sans-serif" font-size="24px" font-style="normal" font-weight="normal" text-decoration="normal" x="33" y="123" text-anchor="start" dominant-baseline="alphabetic" stroke-opacity="1" stroke-linejoin="bevel" stroke-miterlimit="10" stroke-width="3">0.9</text><text fill="rgb(0,0,0)" stroke="none" font-family="geogebra-sans-serif, sans-serif" font-size="24px" font-style="normal" font-weight="normal" text-decoration="normal" x="33" y="123" text-anchor="start" dominant-baseline="alphabetic" fill-opacity="1">0.9</text><text fill="rgb(0,0,0)" stroke="none" font-family="geogebra-sans-serif, sans-serif" font-size="24px" font-style="normal" font-weight="normal" text-decoration="normal" x="56" y="42" text-anchor="start" dominant-baseline="alphabetic" fill-opacity="1">1</text><text fill="none" stroke="rgb(255,255,255)" font-family="geogebra-sans-serif, sans-serif" font-size="24px" font-style="normal" font-weight="normal" text-decoration="normal" x="56" y="42" text-anchor="start" dominant-baseline="alphabetic" stroke-opacity="1" stroke-linejoin="bevel" stroke-miterlimit="10" stroke-width="3">1</text><text fill="rgb(0,0,0)" stroke="none" font-family="geogebra-sans-serif, sans-serif" font-size="24px" font-style="normal" font-weight="normal" text-decoration="normal" x="56" y="42" text-anchor="start" dominant-baseline="alphabetic" fill-opacity="1">1</text><text fill="rgb(0,0,0)" stroke="none" font-family="geogebra-sans-serif, sans-serif" font-size="24px" font-style="normal" font-weight="normal" text-decoration="normal" x="56" y="871" text-anchor="start" dominant-baseline="alphabetic" fill-opacity="1">0</text><text fill="none" stroke="rgb(255,255,255)" font-family="geogebra-sans-serif, sans-serif" font-size="24px" font-style="normal" font-weight="normal" text-decoration="normal" x="56" y="871" text-anchor="start" dominant-baseline="alphabetic" stroke-opacity="1" stroke-linejoin="bevel" stroke-miterlimit="10" stroke-width="3">0</text><text fill="rgb(0,0,0)" stroke="none" font-family="geogebra-sans-serif, sans-serif" font-size="24px" font-style="normal" font-weight="normal" text-decoration="normal" x="56" y="871" text-anchor="start" dominant-baseline="alphabetic" fill-opacity="1">0</text><path fill="none" stroke="rgb(0,0,0)" paint-order="fill stroke markers" d=" M 81.51472329940042 843.5906459176963 L 893.4893137575701 31.61605545952534" stroke-opacity="0.6980392156862745" stroke-linecap="round" stroke-linejoin="round" stroke-miterlimit="10" stroke-width="1.5"/><text fill="rgb(0,0,0)" stroke="none" font-family="geogebra-sans-serif, sans-serif" font-size="32px" font-style="normal" font-weight="normal" text-decoration="normal" x="445" y="508" text-anchor="start" dominant-baseline="alphabetic" fill-opacity="1">x</text><text fill="none" stroke="rgb(255,255,255)" font-family="geogebra-sans-serif, sans-serif" font-size="32px" font-style="normal" font-weight="normal" text-decoration="normal" x="445" y="508" text-anchor="start" dominant-baseline="alphabetic" stroke-opacity="1" stroke-linejoin="bevel" stroke-miterlimit="10" stroke-width="3">x</text><text fill="rgb(0,0,0)" stroke="none" font-family="geogebra-sans-serif, sans-serif" font-size="32px" font-style="normal" font-weight="normal" text-decoration="normal" x="445" y="508" text-anchor="start" dominant-baseline="alphabetic" fill-opacity="1">x</text><path fill="none" stroke="rgb(46,125,50)" paint-order="fill stroke markers" d=" M 487.5020185284853 437.6033506886108 L 183.01154710667163 437.6033506886108" stroke-opacity="0.6980392156862745" stroke-linecap="round" stroke-linejoin="round" stroke-miterlimit="10" stroke-width="3"/><text fill="rgb(46,125,50)" stroke="none" font-family="geogebra-sans-serif, sans-serif" font-size="32px" font-style="normal" font-weight="normal" text-decoration="normal" x="288" y="424" text-anchor="start" dominant-baseline="alphabetic" fill-opacity="1">0.5^1</text><text fill="none" stroke="rgb(255,255,255)" font-family="geogebra-sans-serif, sans-serif" font-size="32px" font-style="normal" font-weight="normal" text-decoration="normal" x="288" y="424" text-anchor="start" dominant-baseline="alphabetic" stroke-opacity="1" stroke-linejoin="bevel" stroke-miterlimit="10" stroke-width="3">0.5^1</text><text fill="rgb(46,125,50)" stroke="none" font-family="geogebra-sans-serif, sans-serif" font-size="32px" font-style="normal" font-weight="normal" text-decoration="normal" x="288" y="424" text-anchor="start" dominant-baseline="alphabetic" fill-opacity="1">0.5^1</text><path fill="none" stroke="rgb(46,125,50)" paint-order="fill stroke markers" d=" M 284.5083709139428 640.5969983031536 L 132.26313520303603 640.5969983031536" stroke-opacity="0.6980392156862745" stroke-linecap="round" stroke-linejoin="round" stroke-miterlimit="10" stroke-width="3.5"/><text fill="rgb(46,125,50)" stroke="none" font-family="geogebra-sans-serif, sans-serif" font-size="32px" font-style="normal" font-weight="normal" text-decoration="normal" x="169" y="627" text-anchor="start" dominant-baseline="alphabetic" fill-opacity="1">0.5^2</text><text fill="none" stroke="rgb(255,255,255)" font-family="geogebra-sans-serif, sans-serif" font-size="32px" font-style="normal" font-weight="normal" text-decoration="normal" x="169" y="627" text-anchor="start" dominant-baseline="alphabetic" stroke-opacity="1" stroke-linejoin="bevel" stroke-miterlimit="10" stroke-width="3">0.5^2</text><text fill="rgb(46,125,50)" stroke="none" font-family="geogebra-sans-serif, sans-serif" font-size="32px" font-style="normal" font-weight="normal" text-decoration="normal" x="169" y="627" text-anchor="start" dominant-baseline="alphabetic" fill-opacity="1">0.5^2</text><path fill="none" stroke="rgb(46,125,50)" paint-order="fill stroke markers" d=" M 183.01154710667163 742.093822110425 L 106.88892925121822 742.093822110425" stroke-opacity="0.6980392156862745" stroke-linecap="round" stroke-linejoin="round" stroke-miterlimit="10" stroke-width="3.5"/><text fill="rgb(46,125,50)" stroke="none" font-family="geogebra-sans-serif, sans-serif" font-size="32px" font-style="normal" font-weight="normal" text-decoration="normal" x="104" y="724" text-anchor="start" dominant-baseline="alphabetic" fill-opacity="1">0.5^3</text><text fill="none" stroke="rgb(255,255,255)" font-family="geogebra-sans-serif, sans-serif" font-size="32px" font-style="normal" font-weight="normal" text-decoration="normal" x="104" y="724" text-anchor="start" dominant-baseline="alphabetic" stroke-opacity="1" stroke-linejoin="bevel" stroke-miterlimit="10" stroke-width="3">0.5^3</text><text fill="rgb(46,125,50)" stroke="none" font-family="geogebra-sans-serif, sans-serif" font-size="32px" font-style="normal" font-weight="normal" text-decoration="normal" x="104" y="724" text-anchor="start" dominant-baseline="alphabetic" fill-opacity="1">0.5^3</text><path fill="none" stroke="rgb(46,125,50)" paint-order="fill stroke markers" d=" M 94.20182627530932 792.8422340140606 L 132.26313520303603 792.8422340140606" stroke-opacity="0.6980392156862745" stroke-linecap="round" stroke-linejoin="round" stroke-miterlimit="10" stroke-width="2.5"/><text fill="rgb(46,125,50)" stroke="none" font-family="geogebra-sans-serif, sans-serif" font-size="32px" font-style="normal" font-weight="normal" text-decoration="normal" x="161" y="797" text-anchor="start" dominant-baseline="alphabetic" fill-opacity="1">0.5^4</text><text fill="none" stroke="rgb(255,255,255)" font-family="geogebra-sans-serif, sans-serif" font-size="32px" font-style="normal" font-weight="normal" text-decoration="normal" x="161" y="797" text-anchor="start" dominant-baseline="alphabetic" stroke-opacity="1" stroke-linejoin="bevel" stroke-miterlimit="10" stroke-width="3">0.5^4</text><text fill="rgb(46,125,50)" stroke="none" font-family="geogebra-sans-serif, sans-serif" font-size="32px" font-style="normal" font-weight="normal" text-decoration="normal" x="161" y="797" text-anchor="start" dominant-baseline="alphabetic" fill-opacity="1">0.5^4</text><path fill="none" stroke="rgb(46,125,50)" paint-order="fill stroke markers" d=" M 87.85827478735487 818.2164399658784 L 106.88892925121822 818.2164399658784" stroke-opacity="0.6980392156862745" stroke-linecap="round" stroke-linejoin="round" stroke-miterlimit="10" stroke-width="1.5"/><text fill="rgb(46,125,50)" stroke="none" font-family="geogebra-sans-serif, sans-serif" font-size="32px" font-style="normal" font-weight="normal" text-decoration="normal" x="121" y="838" text-anchor="start" dominant-baseline="alphabetic" fill-opacity="1">0.5^5</text><text fill="none" stroke="rgb(255,255,255)" font-family="geogebra-sans-serif, sans-serif" font-size="32px" font-style="normal" font-weight="normal" text-decoration="normal" x="121" y="838" text-anchor="start" dominant-baseline="alphabetic" stroke-opacity="1" stroke-linejoin="bevel" stroke-miterlimit="10" stroke-width="3">0.5^5</text><text fill="rgb(46,125,50)" stroke="none" font-family="geogebra-sans-serif, sans-serif" font-size="32px" font-style="normal" font-weight="normal" text-decoration="normal" x="121" y="838" text-anchor="start" dominant-baseline="alphabetic" fill-opacity="1">0.5^5</text><path fill="none" stroke="rgb(0,0,0)" paint-order="fill stroke markers" d=" M 81.51472329940042 843.5906459176963 L 487.5020185284853 437.6033506886108" stroke-opacity="0.6980392156862745" stroke-linecap="round" stroke-linejoin="round" stroke-miterlimit="10" stroke-width="3.5"/><path fill="none" stroke="rgb(46,125,50)" paint-order="fill stroke markers" d=" M 284.5083709139428 31.61605545952534 L 893.4893137575701 31.61605545952534" stroke-opacity="0.6980392156862745" stroke-linecap="round" stroke-linejoin="round" stroke-miterlimit="10" stroke-width="3.5"/><text fill="rgb(46,125,50)" stroke="none" font-family="geogebra-sans-serif, sans-serif" font-size="32px" font-style="normal" font-weight="normal" text-decoration="normal" x="525" y="17" text-anchor="start" dominant-baseline="alphabetic" fill-opacity="1">0.5^0</text><text fill="none" stroke="rgb(255,255,255)" font-family="geogebra-sans-serif, sans-serif" font-size="32px" font-style="normal" font-weight="normal" text-decoration="normal" x="525" y="17" text-anchor="start" dominant-baseline="alphabetic" stroke-opacity="1" stroke-linejoin="bevel" stroke-miterlimit="10" stroke-width="3">0.5^0</text><text fill="rgb(46,125,50)" stroke="none" font-family="geogebra-sans-serif, sans-serif" font-size="32px" font-style="normal" font-weight="normal" text-decoration="normal" x="525" y="17" text-anchor="start" dominant-baseline="alphabetic" fill-opacity="1">0.5^0</text><g transform="scale(67,67)"><g transform="translate(2.029850746268657,2.2961009552238805)"><path fill="rgb(46,125,50)" stroke="none" paint-order="stroke fill markers" d=" M 0.46 -0.32 Q 0.46 -0.17400000000000002 0.423 -0.094 Q 0.364 0.018000000000000002 0.249 0.022 Q 0.158 0.022 0.10300000000000001 -0.05 Q 0.092 -0.063 0.084 -0.079 Q 0.039 -0.162 0.039 -0.32 Q 0.039 -0.467 0.076 -0.547 Q 0.126 -0.659 0.23800000000000002 -0.666 L 0.25 -0.666 Q 0.339 -0.666 0.395 -0.595 L 0.395 -0.594 Q 0.40900000000000003 -0.5760000000000001 0.42 -0.554 Q 0.46 -0.46900000000000003 0.46 -0.32 M 0.249 0 L 0.249 0 Q 0.312 0 0.34600000000000003 -0.061 Q 0.36 -0.088 0.366 -0.125 Q 0.377 -0.189 0.377 -0.332 Q 0.377 -0.47100000000000003 0.367 -0.527 Q 0.34900000000000003 -0.622 0.275 -0.641 Q 0.262 -0.644 0.249 -0.644 Q 0.179 -0.644 0.147 -0.5740000000000001 Q 0.136 -0.55 0.13 -0.516 Q 0.122 -0.462 0.122 -0.332 Q 0.122 -0.181 0.133 -0.121 Q 0.151 -0.025 0.221 -0.004 Q 0.23500000000000001 0 0.249 0 Z"/></g><g transform="translate(2.529850746268657,2.2961009552238805)"><path fill="rgb(46,125,50)" stroke="none" paint-order="stroke fill markers" d=" M 0.18 -0.083 L 0.18 0 L 0.097 0 L 0.097 -0.083 L 0.18 -0.083 Z"/></g><g transform="translate(2.807850746268657,2.2961009552238805)"><path fill="rgb(46,125,50)" stroke="none" paint-order="stroke fill markers" d=" M 0.449 -0.201 L 0.449 -0.201 Q 0.449 -0.098 0.372 -0.031 Q 0.31 0.022 0.231 0.022 Q 0.139 0.022 0.085 -0.055 Q 0.05 -0.10400000000000001 0.05 -0.161 Q 0.05 -0.20700000000000002 0.091 -0.213 Q 0.095 -0.214 0.099 -0.214 Q 0.136 -0.214 0.147 -0.181 Q 0.149 -0.17300000000000001 0.149 -0.165 Q 0.149 -0.133 0.121 -0.121 Q 0.111 -0.116 0.099 -0.116 Q 0.088 -0.116 0.082 -0.11800000000000001 Q 0.1 -0.055 0.159 -0.024 Q 0.192 -0.006 0.229 -0.006 Q 0.296 -0.006 0.336 -0.07100000000000001 Q 0.36 -0.113 0.36 -0.20800000000000002 Q 0.36 -0.292 0.342 -0.334 Q 0.314 -0.398 0.257 -0.398 Q 0.176 -0.398 0.128 -0.328 Q 0.122 -0.319 0.115 -0.319 Q 0.10200000000000001 -0.319 0.101 -0.333 L 0.101 -0.34500000000000003 L 0.101 -0.641 Q 0.101 -0.664 0.111 -0.665 Q 0.115 -0.665 0.123 -0.662 Q 0.186 -0.634 0.256 -0.634 Q 0.328 -0.634 0.392 -0.663 Q 0.397 -0.666 0.4 -0.666 Q 0.41000000000000003 -0.666 0.41000000000000003 -0.655 Q 0.41000000000000003 -0.642 0.378 -0.613 Q 0.31 -0.551 0.217 -0.551 Q 0.17500000000000002 -0.551 0.132 -0.5640000000000001 L 0.132 -0.369 Q 0.184 -0.42 0.259 -0.42 Q 0.34700000000000003 -0.42 0.404 -0.343 Q 0.449 -0.28200000000000003 0.449 -0.201 Z"/></g><g transform="translate(3.307850746268657,1.8832089552238804) scale(0.7,0.7)"><path fill="rgb(46,125,50)" stroke="none" paint-order="stroke fill markers" d=" M 0.088 -0.059000000000000004 L 0.088 -0.059000000000000004 L 0.146 -0.29 Q 0.162 -0.354 0.162 -0.374 Q 0.162 -0.42 0.131 -0.42 Q 0.09 -0.42 0.064 -0.325 Q 0.061 -0.314 0.058 -0.301 Q 0.047 -0.279 0.041 -0.278 Q 0.029 -0.278 0.029 -0.28800000000000003 Q 0.029 -0.304 0.048 -0.356 Q 0.054 -0.373 0.06 -0.385 Q 0.084 -0.434 0.12 -0.441 Q 0.127 -0.442 0.134 -0.442 Q 0.188 -0.442 0.214 -0.397 Q 0.224 -0.378 0.226 -0.355 Q 0.29 -0.442 0.382 -0.442 Q 0.433 -0.442 0.464 -0.41600000000000004 Q 0.492 -0.392 0.496 -0.34500000000000003 Q 0.5640000000000001 -0.442 0.659 -0.442 Q 0.748 -0.442 0.769 -0.373 L 0.769 -0.372 Q 0.774 -0.355 0.774 -0.335 Q 0.774 -0.28200000000000003 0.713 -0.115 Q 0.6950000000000001 -0.07100000000000001 0.6950000000000001 -0.044 Q 0.6950000000000001 -0.011 0.719 -0.011 Q 0.781 -0.011 0.8170000000000001 -0.121 L 0.8210000000000001 -0.135 Q 0.8260000000000001 -0.151 0.8310000000000001 -0.152 L 0.8310000000000001 -0.153 L 0.836 -0.153 Q 0.848 -0.153 0.848 -0.14300000000000002 Q 0.848 -0.126 0.8270000000000001 -0.08 Q 0.784 0.011 0.717 0.011 Q 0.666 0.011 0.644 -0.032 Q 0.635 -0.05 0.635 -0.07100000000000001 Q 0.635 -0.091 0.648 -0.126 Q 0.71 -0.29 0.71 -0.35000000000000003 Q 0.71 -0.42 0.656 -0.42 Q 0.5680000000000001 -0.42 0.51 -0.325 Q 0.494 -0.3 0.491 -0.28700000000000003 Q 0.488 -0.274 0.431 -0.046 Q 0.42 -0.003 0.406 0.006 L 0.405 0.007 L 0.404 0.007 Q 0.397 0.011 0.386 0.011 Q 0.361 0.006 0.357 -0.016 L 0.37 -0.075 L 0.39 -0.151 L 0.418 -0.267 Q 0.433 -0.323 0.433 -0.35000000000000003 Q 0.433 -0.42 0.379 -0.42 Q 0.289 -0.42 0.228 -0.32 Q 0.221 -0.309 0.216 -0.298 L 0.203 -0.248 Q 0.198 -0.225 0.186 -0.181 L 0.164 -0.091 Q 0.147 -0.022 0.145 -0.017 Q 0.136 0.009000000000000001 0.108 0.011 Q 0.083 0.006 0.079 -0.016 Q 0.079 -0.014 0.088 -0.059000000000000004 Z"/></g><g transform="translate(3.9224507462686566,1.9882089552238804) scale(0.5,0.5)"><path fill="rgb(46,125,50)" stroke="none" paint-order="stroke fill markers" d=" M 0.294 -0.64 L 0.294 -0.079 Q 0.294 -0.049 0.306 -0.041 Q 0.323 -0.031 0.387 -0.031 L 0.419 -0.031 L 0.419 0 Q 0.384 -0.003 0.257 -0.003 Q 0.13 -0.003 0.095 0 L 0.095 -0.031 L 0.127 -0.031 Q 0.20400000000000001 -0.031 0.215 -0.049 L 0.216 -0.05 Q 0.22 -0.058 0.22 -0.079 L 0.22 -0.597 Q 0.168 -0.5710000000000001 0.089 -0.5710000000000001 L 0.089 -0.602 Q 0.209 -0.602 0.271 -0.666 Q 0.29 -0.666 0.293 -0.659 L 0.293 -0.659 L 0.293 -0.658 Q 0.294 -0.655 0.294 -0.64 Z"/></g><g transform="translate(4.172450746268657,1.8832089552238804) scale(0.7,0.7)"><path fill="rgb(46,125,50)" stroke="none" paint-order="stroke fill markers" d=" M 0.331 0.24 L 0.331 0.24 Q 0.331 0.25 0.321 0.25 Q 0.309 0.25 0.268 0.209 Q 0.20600000000000002 0.147 0.165 0.062 Q 0.099 -0.074 0.099 -0.25 Q 0.099 -0.419 0.162 -0.555 Q 0.214 -0.666 0.294 -0.733 Q 0.315 -0.75 0.321 -0.75 Q 0.331 -0.75 0.331 -0.74 Q 0.331 -0.735 0.318 -0.723 Q 0.157 -0.559 0.157 -0.25 Q 0.157 0.058 0.314 0.218 Q 0.331 0.23500000000000001 0.331 0.24 Z"/></g><g transform="translate(4.444750746268657,1.8832089552238804) scale(0.7,0.7)"><path fill="rgb(46,125,50)" stroke="none" paint-order="stroke fill markers" d=" M 0.334 -0.302 L 0.3 -0.165 Q 0.28300000000000003 -0.097 0.28300000000000003 -0.077 Q 0.28300000000000003 -0.025 0.32 -0.014 Q 0.328 -0.011 0.338 -0.011 Q 0.388 -0.011 0.429 -0.061 Q 0.456 -0.093 0.47100000000000003 -0.14200000000000002 Q 0.47400000000000003 -0.153 0.484 -0.153 Q 0.496 -0.153 0.496 -0.14300000000000002 Q 0.496 -0.11800000000000001 0.465 -0.07100000000000001 Q 0.41100000000000003 0.011 0.336 0.011 Q 0.268 0.011 0.23700000000000002 -0.046 Q 0.231 -0.055 0.228 -0.065 Q 0.20400000000000001 -0.017 0.162 0.002 Q 0.14300000000000002 0.011 0.123 0.011 Q 0.063 0.011 0.039 -0.024 Q 0.029 -0.037 0.029 -0.055 Q 0.029 -0.092 0.061 -0.107 Q 0.07200000000000001 -0.113 0.084 -0.113 Q 0.114 -0.113 0.12 -0.088 Q 0.121 -0.083 0.121 -0.078 Q 0.121 -0.044 0.08700000000000001 -0.028 Q 0.081 -0.025 0.074 -0.024 Q 0.095 -0.011 0.124 -0.011 Q 0.177 -0.011 0.20800000000000002 -0.082 Q 0.214 -0.097 0.219 -0.115 Q 0.273 -0.319 0.273 -0.353 Q 0.267 -0.41500000000000004 0.219 -0.42 Q 0.167 -0.42 0.124 -0.367 L 0.124 -0.366 Q 0.124 -0.365 0.123 -0.365 Q 0.108 -0.34500000000000003 0.096 -0.319 Q 0.091 -0.307 0.08700000000000001 -0.295 L 0.085 -0.289 Q 0.083 -0.278 0.07200000000000001 -0.278 Q 0.06 -0.278 0.06 -0.28800000000000003 Q 0.06 -0.313 0.092 -0.36 Q 0.146 -0.442 0.221 -0.442 Q 0.298 -0.442 0.329 -0.366 Q 0.361 -0.428 0.41400000000000003 -0.44 Q 0.424 -0.442 0.434 -0.442 Q 0.493 -0.442 0.517 -0.40900000000000003 Q 0.527 -0.395 0.527 -0.376 Q 0.527 -0.335 0.49 -0.321 Q 0.481 -0.318 0.47300000000000003 -0.318 Q 0.442 -0.318 0.436 -0.34500000000000003 Q 0.435 -0.34900000000000003 0.435 -0.353 Q 0.435 -0.383 0.464 -0.4 Q 0.47300000000000003 -0.405 0.483 -0.40700000000000003 Q 0.462 -0.42 0.433 -0.42 Q 0.365 -0.42 0.337 -0.314 Q 0.335 -0.308 0.334 -0.302 Z"/></g><g transform="translate(4.845150746268657,1.8832089552238804) scale(0.7,0.7)"><path fill="rgb(46,125,50)" stroke="none" paint-order="stroke fill markers" d=" M 0.289 -0.25 L 0.289 -0.25 Q 0.289 -0.081 0.226 0.055 Q 0.17400000000000002 0.166 0.094 0.233 Q 0.073 0.25 0.067 0.25 Q 0.057 0.25 0.057 0.24 Q 0.057 0.23500000000000001 0.07 0.223 Q 0.231 0.059000000000000004 0.231 -0.25 Q 0.231 -0.555 0.081 -0.712 L 0.076 -0.717 Q 0.057 -0.735 0.057 -0.74 Q 0.057 -0.75 0.067 -0.75 Q 0.079 -0.75 0.12 -0.709 Q 0.182 -0.647 0.223 -0.562 Q 0.289 -0.426 0.289 -0.25 Z"/></g><g transform="translate(5.117450746268657,1.8832089552238804) scale(0.7,0.7)"><path fill="rgb(46,125,50)" stroke="none" paint-order="stroke fill markers" d=" M 0.40900000000000003 -0.23 L 0.40900000000000003 0.05 Q 0.40900000000000003 0.082 0.389 0.083 Q 0.369 0.083 0.369 0.05 L 0.369 -0.23 L 0.089 -0.23 Q 0.057 -0.23 0.056 -0.25 Q 0.056 -0.27 0.089 -0.27 L 0.369 -0.27 L 0.369 -0.55 Q 0.369 -0.582 0.389 -0.583 Q 0.40900000000000003 -0.583 0.40900000000000003 -0.55 L 0.40900000000000003 -0.27 L 0.6880000000000001 -0.27 Q 0.72 -0.27 0.721 -0.25 Q 0.721 -0.23 0.6880000000000001 -0.23 L 0.40900000000000003 -0.23 Z"/></g><g transform="translate(5.662050746268657,1.8832089552238804) scale(0.7,0.7)"><path fill="rgb(46,125,50)" stroke="none" paint-order="stroke fill markers" d=" M 0.449 -0.17400000000000002 L 0.449 -0.17400000000000002 L 0.421 0 L 0.05 0 Q 0.05 -0.025 0.056 -0.032 L 0.061 -0.037 L 0.253 -0.251 Q 0.358 -0.369 0.358 -0.47200000000000003 Q 0.358 -0.561 0.304 -0.607 L 0.303 -0.608 L 0.302 -0.608 Q 0.27 -0.635 0.224 -0.635 Q 0.152 -0.635 0.109 -0.5730000000000001 Q 0.097 -0.555 0.089 -0.533 Q 0.092 -0.534 0.10200000000000001 -0.534 Q 0.14200000000000002 -0.534 0.153 -0.498 L 0.153 -0.497 Q 0.155 -0.49 0.155 -0.482 Q 0.155 -0.442 0.117 -0.431 Q 0.109 -0.429 0.10300000000000001 -0.429 Q 0.066 -0.429 0.054 -0.46 Q 0.05 -0.47100000000000003 0.05 -0.485 Q 0.05 -0.562 0.109 -0.617 Q 0.162 -0.666 0.23700000000000002 -0.666 Q 0.34700000000000003 -0.666 0.40800000000000003 -0.592 Q 0.443 -0.549 0.448 -0.49 Q 0.449 -0.481 0.449 -0.47200000000000003 Q 0.449 -0.399 0.394 -0.333 Q 0.365 -0.299 0.304 -0.243 L 0.243 -0.189 L 0.233 -0.18 L 0.127 -0.077 L 0.307 -0.077 Q 0.395 -0.077 0.402 -0.085 Q 0.41200000000000003 -0.099 0.424 -0.17400000000000002 L 0.449 -0.17400000000000002 Z"/></g><g transform="translate(6.2972633300904635,2.2961009552238805)"><path fill="rgb(46,125,50)" stroke="none" paint-order="stroke fill markers" d=" M 0.675 -0.498 L 0.15 -0.25 L 0.675 -0.002 Q 0.6940000000000001 0.008 0.6940000000000001 0.02 Q 0.6940000000000001 0.036000000000000004 0.679 0.039 Q 0.676 0.04 0.674 0.04 Q 0.669 0.04 0.656 0.033 L 0.10200000000000001 -0.228 Q 0.083 -0.23700000000000002 0.083 -0.25 Q 0.083 -0.263 0.10200000000000001 -0.272 L 0.656 -0.533 Q 0.669 -0.54 0.674 -0.54 Q 0.6900000000000001 -0.54 0.6930000000000001 -0.525 Q 0.6940000000000001 -0.522 0.6940000000000001 -0.52 Q 0.6940000000000001 -0.508 0.675 -0.498 Z"/></g><g transform="translate(7.353041107868241,2.2961009552238805)"><path fill="rgb(46,125,50)" stroke="none" paint-order="stroke fill markers" d=" M 0.334 -0.302 L 0.3 -0.165 Q 0.28300000000000003 -0.097 0.28300000000000003 -0.077 Q 0.28300000000000003 -0.025 0.32 -0.014 Q 0.328 -0.011 0.338 -0.011 Q 0.388 -0.011 0.429 -0.061 Q 0.456 -0.093 0.47100000000000003 -0.14200000000000002 Q 0.47400000000000003 -0.153 0.484 -0.153 Q 0.496 -0.153 0.496 -0.14300000000000002 Q 0.496 -0.11800000000000001 0.465 -0.07100000000000001 Q 0.41100000000000003 0.011 0.336 0.011 Q 0.268 0.011 0.23700000000000002 -0.046 Q 0.231 -0.055 0.228 -0.065 Q 0.20400000000000001 -0.017 0.162 0.002 Q 0.14300000000000002 0.011 0.123 0.011 Q 0.063 0.011 0.039 -0.024 Q 0.029 -0.037 0.029 -0.055 Q 0.029 -0.092 0.061 -0.107 Q 0.07200000000000001 -0.113 0.084 -0.113 Q 0.114 -0.113 0.12 -0.088 Q 0.121 -0.083 0.121 -0.078 Q 0.121 -0.044 0.08700000000000001 -0.028 Q 0.081 -0.025 0.074 -0.024 Q 0.095 -0.011 0.124 -0.011 Q 0.177 -0.011 0.20800000000000002 -0.082 Q 0.214 -0.097 0.219 -0.115 Q 0.273 -0.319 0.273 -0.353 Q 0.267 -0.41500000000000004 0.219 -0.42 Q 0.167 -0.42 0.124 -0.367 L 0.124 -0.366 Q 0.124 -0.365 0.123 -0.365 Q 0.108 -0.34500000000000003 0.096 -0.319 Q 0.091 -0.307 0.08700000000000001 -0.295 L 0.085 -0.289 Q 0.083 -0.278 0.07200000000000001 -0.278 Q 0.06 -0.278 0.06 -0.28800000000000003 Q 0.06 -0.313 0.092 -0.36 Q 0.146 -0.442 0.221 -0.442 Q 0.298 -0.442 0.329 -0.366 Q 0.361 -0.428 0.41400000000000003 -0.44 Q 0.424 -0.442 0.434 -0.442 Q 0.493 -0.442 0.517 -0.40900000000000003 Q 0.527 -0.395 0.527 -0.376 Q 0.527 -0.335 0.49 -0.321 Q 0.481 -0.318 0.47300000000000003 -0.318 Q 0.442 -0.318 0.436 -0.34500000000000003 Q 0.435 -0.34900000000000003 0.435 -0.353 Q 0.435 -0.383 0.464 -0.4 Q 0.47300000000000003 -0.405 0.483 -0.40700000000000003 Q 0.462 -0.42 0.433 -0.42 Q 0.365 -0.42 0.337 -0.314 Q 0.335 -0.308 0.334 -0.302 Z"/></g><g transform="translate(8.20281888564602,2.2961009552238805)"><path fill="rgb(46,125,50)" stroke="none" paint-order="stroke fill markers" d=" M 0.676 -0.595 L 0.15 -0.34600000000000003 L 0.675 -0.098 Q 0.6920000000000001 -0.085 0.6940000000000001 -0.077 Q 0.6940000000000001 -0.061 0.679 -0.058 Q 0.676 -0.057 0.674 -0.057 Q 0.668 -0.057 0.657 -0.063 L 0.10200000000000001 -0.325 Q 0.083 -0.333 0.083 -0.34600000000000003 Q 0.083 -0.359 0.10200000000000001 -0.368 L 0.658 -0.63 Q 0.669 -0.636 0.674 -0.636 Q 0.6900000000000001 -0.636 0.6930000000000001 -0.621 Q 0.6940000000000001 -0.618 0.6940000000000001 -0.616 Q 0.6940000000000001 -0.602 0.676 -0.595 M 0.661 0.137 L 0.116 0.137 Q 0.084 0.137 0.083 0.117 Q 0.083 0.097 0.117 0.097 L 0.66 0.097 Q 0.6920000000000001 0.097 0.6940000000000001 0.117 Q 0.6940000000000001 0.137 0.661 0.137 Z"/></g><g transform="translate(9.258596663423798,2.2961009552238805)"><path fill="rgb(46,125,50)" stroke="none" paint-order="stroke fill markers" d=" M 0.46 -0.32 Q 0.46 -0.17400000000000002 0.423 -0.094 Q 0.364 0.018000000000000002 0.249 0.022 Q 0.158 0.022 0.10300000000000001 -0.05 Q 0.092 -0.063 0.084 -0.079 Q 0.039 -0.162 0.039 -0.32 Q 0.039 -0.467 0.076 -0.547 Q 0.126 -0.659 0.23800000000000002 -0.666 L 0.25 -0.666 Q 0.339 -0.666 0.395 -0.595 L 0.395 -0.594 Q 0.40900000000000003 -0.5760000000000001 0.42 -0.554 Q 0.46 -0.46900000000000003 0.46 -0.32 M 0.249 0 L 0.249 0 Q 0.312 0 0.34600000000000003 -0.061 Q 0.36 -0.088 0.366 -0.125 Q 0.377 -0.189 0.377 -0.332 Q 0.377 -0.47100000000000003 0.367 -0.527 Q 0.34900000000000003 -0.622 0.275 -0.641 Q 0.262 -0.644 0.249 -0.644 Q 0.179 -0.644 0.147 -0.5740000000000001 Q 0.136 -0.55 0.13 -0.516 Q 0.122 -0.462 0.122 -0.332 Q 0.122 -0.181 0.133 -0.121 Q 0.151 -0.025 0.221 -0.004 Q 0.23500000000000001 0 0.249 0 Z"/></g><g transform="translate(9.758596663423798,2.2961009552238805)"><path fill="rgb(46,125,50)" stroke="none" paint-order="stroke fill markers" d=" M 0.18 -0.083 L 0.18 0 L 0.097 0 L 0.097 -0.083 L 0.18 -0.083 Z"/></g><g transform="translate(10.036596663423799,2.2961009552238805)"><path fill="rgb(46,125,50)" stroke="none" paint-order="stroke fill markers" d=" M 0.449 -0.201 L 0.449 -0.201 Q 0.449 -0.098 0.372 -0.031 Q 0.31 0.022 0.231 0.022 Q 0.139 0.022 0.085 -0.055 Q 0.05 -0.10400000000000001 0.05 -0.161 Q 0.05 -0.20700000000000002 0.091 -0.213 Q 0.095 -0.214 0.099 -0.214 Q 0.136 -0.214 0.147 -0.181 Q 0.149 -0.17300000000000001 0.149 -0.165 Q 0.149 -0.133 0.121 -0.121 Q 0.111 -0.116 0.099 -0.116 Q 0.088 -0.116 0.082 -0.11800000000000001 Q 0.1 -0.055 0.159 -0.024 Q 0.192 -0.006 0.229 -0.006 Q 0.296 -0.006 0.336 -0.07100000000000001 Q 0.36 -0.113 0.36 -0.20800000000000002 Q 0.36 -0.292 0.342 -0.334 Q 0.314 -0.398 0.257 -0.398 Q 0.176 -0.398 0.128 -0.328 Q 0.122 -0.319 0.115 -0.319 Q 0.10200000000000001 -0.319 0.101 -0.333 L 0.101 -0.34500000000000003 L 0.101 -0.641 Q 0.101 -0.664 0.111 -0.665 Q 0.115 -0.665 0.123 -0.662 Q 0.186 -0.634 0.256 -0.634 Q 0.328 -0.634 0.392 -0.663 Q 0.397 -0.666 0.4 -0.666 Q 0.41000000000000003 -0.666 0.41000000000000003 -0.655 Q 0.41000000000000003 -0.642 0.378 -0.613 Q 0.31 -0.551 0.217 -0.551 Q 0.17500000000000002 -0.551 0.132 -0.5640000000000001 L 0.132 -0.369 Q 0.184 -0.42 0.259 -0.42 Q 0.34700000000000003 -0.42 0.404 -0.343 Q 0.449 -0.28200000000000003 0.449 -0.201 Z"/></g><g transform="translate(10.536596663423799,1.8832089552238804) scale(0.7,0.7)"><path fill="rgb(46,125,50)" stroke="none" paint-order="stroke fill markers" d=" M 0.088 -0.059000000000000004 L 0.088 -0.059000000000000004 L 0.146 -0.29 Q 0.162 -0.354 0.162 -0.374 Q 0.162 -0.42 0.131 -0.42 Q 0.09 -0.42 0.064 -0.325 Q 0.061 -0.314 0.058 -0.301 Q 0.047 -0.279 0.041 -0.278 Q 0.029 -0.278 0.029 -0.28800000000000003 Q 0.029 -0.304 0.048 -0.356 Q 0.054 -0.373 0.06 -0.385 Q 0.084 -0.434 0.12 -0.441 Q 0.127 -0.442 0.134 -0.442 Q 0.188 -0.442 0.214 -0.397 Q 0.224 -0.378 0.226 -0.355 Q 0.29 -0.442 0.382 -0.442 Q 0.433 -0.442 0.464 -0.41600000000000004 Q 0.492 -0.392 0.496 -0.34500000000000003 Q 0.5640000000000001 -0.442 0.659 -0.442 Q 0.748 -0.442 0.769 -0.373 L 0.769 -0.372 Q 0.774 -0.355 0.774 -0.335 Q 0.774 -0.28200000000000003 0.713 -0.115 Q 0.6950000000000001 -0.07100000000000001 0.6950000000000001 -0.044 Q 0.6950000000000001 -0.011 0.719 -0.011 Q 0.781 -0.011 0.8170000000000001 -0.121 L 0.8210000000000001 -0.135 Q 0.8260000000000001 -0.151 0.8310000000000001 -0.152 L 0.8310000000000001 -0.153 L 0.836 -0.153 Q 0.848 -0.153 0.848 -0.14300000000000002 Q 0.848 -0.126 0.8270000000000001 -0.08 Q 0.784 0.011 0.717 0.011 Q 0.666 0.011 0.644 -0.032 Q 0.635 -0.05 0.635 -0.07100000000000001 Q 0.635 -0.091 0.648 -0.126 Q 0.71 -0.29 0.71 -0.35000000000000003 Q 0.71 -0.42 0.656 -0.42 Q 0.5680000000000001 -0.42 0.51 -0.325 Q 0.494 -0.3 0.491 -0.28700000000000003 Q 0.488 -0.274 0.431 -0.046 Q 0.42 -0.003 0.406 0.006 L 0.405 0.007 L 0.404 0.007 Q 0.397 0.011 0.386 0.011 Q 0.361 0.006 0.357 -0.016 L 0.37 -0.075 L 0.39 -0.151 L 0.418 -0.267 Q 0.433 -0.323 0.433 -0.35000000000000003 Q 0.433 -0.42 0.379 -0.42 Q 0.289 -0.42 0.228 -0.32 Q 0.221 -0.309 0.216 -0.298 L 0.203 -0.248 Q 0.198 -0.225 0.186 -0.181 L 0.164 -0.091 Q 0.147 -0.022 0.145 -0.017 Q 0.136 0.009000000000000001 0.108 0.011 Q 0.083 0.006 0.079 -0.016 Q 0.079 -0.014 0.088 -0.059000000000000004 Z"/></g><g transform="translate(11.151196663423798,1.9882089552238804) scale(0.5,0.5)"><path fill="rgb(46,125,50)" stroke="none" paint-order="stroke fill markers" d=" M 0.294 -0.64 L 0.294 -0.079 Q 0.294 -0.049 0.306 -0.041 Q 0.323 -0.031 0.387 -0.031 L 0.419 -0.031 L 0.419 0 Q 0.384 -0.003 0.257 -0.003 Q 0.13 -0.003 0.095 0 L 0.095 -0.031 L 0.127 -0.031 Q 0.20400000000000001 -0.031 0.215 -0.049 L 0.216 -0.05 Q 0.22 -0.058 0.22 -0.079 L 0.22 -0.597 Q 0.168 -0.5710000000000001 0.089 -0.5710000000000001 L 0.089 -0.602 Q 0.209 -0.602 0.271 -0.666 Q 0.29 -0.666 0.293 -0.659 L 0.293 -0.659 L 0.293 -0.658 Q 0.294 -0.655 0.294 -0.64 Z"/></g><g transform="translate(11.401196663423798,1.8832089552238804) scale(0.7,0.7)"><path fill="rgb(46,125,50)" stroke="none" paint-order="stroke fill markers" d=" M 0.331 0.24 L 0.331 0.24 Q 0.331 0.25 0.321 0.25 Q 0.309 0.25 0.268 0.209 Q 0.20600000000000002 0.147 0.165 0.062 Q 0.099 -0.074 0.099 -0.25 Q 0.099 -0.419 0.162 -0.555 Q 0.214 -0.666 0.294 -0.733 Q 0.315 -0.75 0.321 -0.75 Q 0.331 -0.75 0.331 -0.74 Q 0.331 -0.735 0.318 -0.723 Q 0.157 -0.559 0.157 -0.25 Q 0.157 0.058 0.314 0.218 Q 0.331 0.23500000000000001 0.331 0.24 Z"/></g><g transform="translate(11.673496663423798,1.8832089552238804) scale(0.7,0.7)"><path fill="rgb(46,125,50)" stroke="none" paint-order="stroke fill markers" d=" M 0.334 -0.302 L 0.3 -0.165 Q 0.28300000000000003 -0.097 0.28300000000000003 -0.077 Q 0.28300000000000003 -0.025 0.32 -0.014 Q 0.328 -0.011 0.338 -0.011 Q 0.388 -0.011 0.429 -0.061 Q 0.456 -0.093 0.47100000000000003 -0.14200000000000002 Q 0.47400000000000003 -0.153 0.484 -0.153 Q 0.496 -0.153 0.496 -0.14300000000000002 Q 0.496 -0.11800000000000001 0.465 -0.07100000000000001 Q 0.41100000000000003 0.011 0.336 0.011 Q 0.268 0.011 0.23700000000000002 -0.046 Q 0.231 -0.055 0.228 -0.065 Q 0.20400000000000001 -0.017 0.162 0.002 Q 0.14300000000000002 0.011 0.123 0.011 Q 0.063 0.011 0.039 -0.024 Q 0.029 -0.037 0.029 -0.055 Q 0.029 -0.092 0.061 -0.107 Q 0.07200000000000001 -0.113 0.084 -0.113 Q 0.114 -0.113 0.12 -0.088 Q 0.121 -0.083 0.121 -0.078 Q 0.121 -0.044 0.08700000000000001 -0.028 Q 0.081 -0.025 0.074 -0.024 Q 0.095 -0.011 0.124 -0.011 Q 0.177 -0.011 0.20800000000000002 -0.082 Q 0.214 -0.097 0.219 -0.115 Q 0.273 -0.319 0.273 -0.353 Q 0.267 -0.41500000000000004 0.219 -0.42 Q 0.167 -0.42 0.124 -0.367 L 0.124 -0.366 Q 0.124 -0.365 0.123 -0.365 Q 0.108 -0.34500000000000003 0.096 -0.319 Q 0.091 -0.307 0.08700000000000001 -0.295 L 0.085 -0.289 Q 0.083 -0.278 0.07200000000000001 -0.278 Q 0.06 -0.278 0.06 -0.28800000000000003 Q 0.06 -0.313 0.092 -0.36 Q 0.146 -0.442 0.221 -0.442 Q 0.298 -0.442 0.329 -0.366 Q 0.361 -0.428 0.41400000000000003 -0.44 Q 0.424 -0.442 0.434 -0.442 Q 0.493 -0.442 0.517 -0.40900000000000003 Q 0.527 -0.395 0.527 -0.376 Q 0.527 -0.335 0.49 -0.321 Q 0.481 -0.318 0.47300000000000003 -0.318 Q 0.442 -0.318 0.436 -0.34500000000000003 Q 0.435 -0.34900000000000003 0.435 -0.353 Q 0.435 -0.383 0.464 -0.4 Q 0.47300000000000003 -0.405 0.483 -0.40700000000000003 Q 0.462 -0.42 0.433 -0.42 Q 0.365 -0.42 0.337 -0.314 Q 0.335 -0.308 0.334 -0.302 Z"/></g><g transform="translate(12.073896663423797,1.8832089552238804) scale(0.7,0.7)"><path fill="rgb(46,125,50)" stroke="none" paint-order="stroke fill markers" d=" M 0.289 -0.25 L 0.289 -0.25 Q 0.289 -0.081 0.226 0.055 Q 0.17400000000000002 0.166 0.094 0.233 Q 0.073 0.25 0.067 0.25 Q 0.057 0.25 0.057 0.24 Q 0.057 0.23500000000000001 0.07 0.223 Q 0.231 0.059000000000000004 0.231 -0.25 Q 0.231 -0.555 0.081 -0.712 L 0.076 -0.717 Q 0.057 -0.735 0.057 -0.74 Q 0.057 -0.75 0.067 -0.75 Q 0.079 -0.75 0.12 -0.709 Q 0.182 -0.647 0.223 -0.562 Q 0.289 -0.426 0.289 -0.25 Z"/></g></g><g transform="scale(47,47)"><g transform="translate(6.404255319148936,15.758039914893617)"><path fill="rgb(0,0,0)" stroke="none" paint-order="stroke fill markers" d=" M 0.457 -0.326 Q 0.457 -0.17500000000000002 0.417 -0.088 Q 0.393 -0.036000000000000004 0.34850000000000003 -0.007 Q 0.304 0.022 0.249 0.022 Q 0.217 0.022 0.1875 0.012 Q 0.158 0.002 0.1265 -0.027 Q 0.095 -0.056 0.076 -0.101 Q 0.042 -0.184 0.042 -0.326 Q 0.042 -0.47800000000000004 0.08 -0.562 Q 0.108 -0.624 0.154 -0.651 Q 0.2 -0.678 0.25 -0.678 Q 0.294 -0.678 0.3385 -0.6545 Q 0.383 -0.631 0.41100000000000003 -0.579 Q 0.457 -0.49 0.457 -0.326 M 0.25 -0.039 Q 0.33 -0.039 0.361 -0.146 Q 0.379 -0.209 0.379 -0.338 Q 0.379 -0.467 0.36 -0.523 Q 0.354 -0.538 0.34950000000000003 -0.5465 Q 0.34500000000000003 -0.555 0.332 -0.5750000000000001 Q 0.319 -0.595 0.2975 -0.606 Q 0.276 -0.617 0.249 -0.617 Q 0.169 -0.617 0.137 -0.516 Q 0.12 -0.461 0.12 -0.338 Q 0.12 -0.21 0.137 -0.149 Q 0.168 -0.039 0.25 -0.039 Z"/></g><g transform="translate(7.182033096926713,15.758039914893617)"><path fill="rgb(0,0,0)" stroke="none" paint-order="stroke fill markers" d=" M 0.675 -0.498 L 0.15 -0.25 L 0.675 -0.002 Q 0.6940000000000001 0.008 0.6940000000000001 0.02 Q 0.6940000000000001 0.036000000000000004 0.679 0.039 Q 0.676 0.04 0.674 0.04 Q 0.669 0.04 0.656 0.033 L 0.10200000000000001 -0.228 Q 0.083 -0.23700000000000002 0.083 -0.25 Q 0.083 -0.263 0.10200000000000001 -0.272 L 0.656 -0.533 Q 0.669 -0.54 0.674 -0.54 Q 0.6900000000000001 -0.54 0.6930000000000001 -0.525 Q 0.6940000000000001 -0.522 0.6940000000000001 -0.52 Q 0.6940000000000001 -0.508 0.675 -0.498 Z"/></g><g transform="translate(8.237810874704492,15.758039914893617)"><path fill="rgb(0,0,0)" stroke="none" paint-order="stroke fill markers" d=" M 0.26 -0.229 L 0.46 0 L 0.377 0 L 0.227 -0.188 L 0.082 0 L 0 0 L 0.194 -0.229 L 0.006 -0.444 L 0.089 -0.444 L 0.227 -0.279 L 0.361 -0.444 L 0.443 -0.444 L 0.26 -0.229 Z"/></g><g transform="translate(8.97658865248227,15.758039914893617)"><path fill="rgb(0,0,0)" stroke="none" paint-order="stroke fill markers" d=" M 0.676 -0.595 L 0.15 -0.34600000000000003 L 0.675 -0.098 Q 0.6920000000000001 -0.085 0.6940000000000001 -0.077 Q 0.6940000000000001 -0.061 0.679 -0.058 Q 0.676 -0.057 0.674 -0.057 Q 0.668 -0.057 0.657 -0.063 L 0.10200000000000001 -0.325 Q 0.083 -0.333 0.083 -0.34600000000000003 Q 0.083 -0.359 0.10200000000000001 -0.368 L 0.658 -0.63 Q 0.669 -0.636 0.674 -0.636 Q 0.6900000000000001 -0.636 0.6930000000000001 -0.621 Q 0.6940000000000001 -0.618 0.6940000000000001 -0.616 Q 0.6940000000000001 -0.602 0.676 -0.595 M 0.661 0.137 L 0.116 0.137 Q 0.084 0.137 0.083 0.117 Q 0.083 0.097 0.117 0.097 L 0.66 0.097 Q 0.6920000000000001 0.097 0.6940000000000001 0.117 Q 0.6940000000000001 0.137 0.661 0.137 Z"/></g><g transform="translate(10.05780295817239,15.081531914893617)"><path fill="rgb(0,0,0)" stroke="none" paint-order="stroke fill markers" d=" M 0.299 -0.678 L 0.299 -0.058 L 0.424 -0.058 L 0.424 0 L 0.095 0 L 0.095 -0.058 L 0.22 -0.058 L 0.22 -0.578 Q 0.169 -0.556 0.089 -0.554 L 0.089 -0.612 Q 0.22 -0.617 0.279 -0.678 L 0.299 -0.678 Z"/></g><rect fill="rgb(0,0,0)" stroke="none" x="10.05780295817239" y="15.488040414893616" width="0.5" height="0.039999"/><g transform="translate(10.05780295817239,16.443990914893615)"><path fill="rgb(0,0,0)" stroke="none" paint-order="stroke fill markers" d=" M 0.17400000000000002 -0.188 L 0.251 -0.259 Q 0.281 -0.29 0.2955 -0.3055 Q 0.31 -0.321 0.33 -0.34900000000000003 Q 0.35000000000000003 -0.377 0.3585 -0.404 Q 0.367 -0.431 0.367 -0.461 Q 0.367 -0.523 0.328 -0.5685 Q 0.289 -0.614 0.222 -0.614 Q 0.161 -0.614 0.1315 -0.5730000000000001 Q 0.10200000000000001 -0.532 0.083 -0.459 Q 0.066 -0.484 0.061 -0.488 Q 0.06 -0.489 0.0545 -0.4965 Q 0.049 -0.504 0.042 -0.514 Q 0.088 -0.678 0.23600000000000002 -0.678 Q 0.332 -0.678 0.3905 -0.6155 Q 0.449 -0.553 0.449 -0.463 Q 0.449 -0.424 0.4315 -0.3865 Q 0.41400000000000003 -0.34900000000000003 0.398 -0.3305 Q 0.382 -0.312 0.35000000000000003 -0.28 Q 0.34 -0.271 0.3055 -0.241 Q 0.271 -0.211 0.261 -0.202 Q 0.254 -0.196 0.1975 -0.14100000000000001 Q 0.14100000000000001 -0.08600000000000001 0.122 -0.07 L 0.231 -0.07 Q 0.23700000000000002 -0.07 0.249 -0.07050000000000001 Q 0.261 -0.07100000000000001 0.267 -0.07100000000000001 L 0.449 -0.07100000000000001 L 0.449 0 L 0.05 0 L 0.05 -0.064 L 0.17400000000000002 -0.188 Z"/></g></g><g transform="scale(47,47)"/></g></g></svg>